<svg width="174" height="363" viewBox="0 0 174 363" fill="none" xmlns="http://www.w3.org/2000/svg">
<path d="M149.038 213.369C142.694 213.355 137.78 210.929 135.555 204.667C133.343 198.466 135.917 193.665 141.278 189.232C134.716 186.662 129.564 183.215 129.462 175.967C129.376 169.753 132.855 166.019 138.406 163.86C138.99 163.747 139.561 163.652 140.145 163.539C143.152 163.45 146.471 163.62 148.55 165.671C152.357 169.412 152.853 166.909 155.083 164.055C158.146 160.099 158.817 158.104 153.606 155.64C151.712 154.732 150.7 151.916 149.301 149.972C149.121 149.146 148.942 148.32 148.75 147.513C148.961 141.703 150.957 136.966 156.779 134.802C163.238 132.403 168.305 135.166 173.199 140.592C175.449 133.925 178.96 129.085 186.241 129.141C192.467 129.209 196.308 132.736 198.577 138.24C198.703 138.822 198.811 139.39 198.937 139.972C198.442 142.554 198.821 145.922 197.3 147.54C193.208 151.918 196.19 152.599 199.504 155.176C203.492 158.276 204.581 157.396 206.781 153.814C208.018 151.774 210.962 150.805 213.139 149.331C213.754 149.212 214.38 149.075 214.995 148.956C221.404 148.829 226.282 151.31 228.543 157.518C230.786 163.713 228.348 168.552 223.011 172.948C229.243 175.693 234.632 178.904 234.735 186.23C234.821 192.445 231.379 196.203 225.916 198.473C225.21 198.61 224.515 198.728 223.827 198.878C221.204 198.302 217.934 198.506 216.098 196.981C212.132 193.686 211.213 195.202 208.933 198.784C206.725 202.255 205.436 203.764 210.085 206.146C212.21 207.232 213.301 210.336 214.845 212.506C214.998 213.21 215.151 213.913 215.322 214.629C215.434 220.886 213.087 225.708 206.875 227.772C200.706 229.812 195.739 227.507 191.243 221.924C188.621 228.424 184.991 233.526 177.405 233.243C171.576 233.018 167.922 229.615 165.586 224.537C165.393 223.65 165.219 222.776 165.014 221.907C164.92 217.495 166.606 213.758 169.509 210.614C163.981 206.028 158.92 202.929 154.444 211.063C153.905 212.044 152.196 212.359 151.016 212.97C150.328 213.119 149.683 213.244 149.038 213.369ZM189.306 214.411C187.223 210.13 198.601 208.483 191.001 203.422C187.126 200.842 185.355 201.535 183.069 205.086C178.249 212.522 189.288 209.761 189.306 214.411ZM148.789 187.84C152.743 186.436 155.978 198.08 160.647 188.108C164.349 180.171 155.903 182.78 154.533 179.205C153.612 182.921 150.829 184.704 148.789 187.84ZM215.647 175.013C206.019 169.978 206.219 170.162 204.609 172.036C199.047 178.564 206.13 179.773 209.656 183.695C210.565 179.551 213.337 177.5 215.647 175.013ZM175.106 147.745C173.491 151.293 171.991 154.26 169.44 157.034C173.358 156.498 174.807 165.157 180.368 158.55C187.235 150.366 174.957 152.363 175.106 147.745ZM178.954 178.345C177.864 180.326 174.624 182.069 179.073 183.9C181.325 184.834 182.989 187.922 185.326 183.645C186.919 180.738 187.48 179.562 184.115 177.632C181.589 176.178 180.008 174.795 178.954 178.345Z" fill="#15ACCA" fill-opacity="0.1"/>
<path d="M164.987 221.916C165.18 222.803 165.354 223.678 165.558 224.546C165.159 225.803 164.748 227.078 164.33 228.322C162.577 233.666 159.169 237.211 153.216 237.296C147.755 237.366 143.718 234.627 141.745 229.527C139.611 223.98 141.629 219.494 145.955 215.898C146.971 215.048 148.025 214.223 149.041 213.372C149.686 213.247 150.343 213.104 150.989 212.979C156.838 214.109 161.436 217.218 164.987 221.916Z" fill="#15ACCA" fill-opacity="0.1"/>
<path d="M140.16 163.549C139.576 163.662 139.005 163.757 138.421 163.87C131.727 161.948 125.135 159.831 124.858 151.263C124.687 146.277 127.075 142.531 131.685 140.538C139.565 137.163 144.285 142.16 148.808 147.499C148.987 148.325 149.167 149.151 149.358 149.958C148.137 155.757 144.959 160.213 140.16 163.549Z" fill="#15ACCA" fill-opacity="0.1"/>
<path d="M110.982 190.098C105.863 186.803 104.283 179.237 107.714 174.397C110.982 169.764 118.062 168.455 122.938 171.59C128.057 174.885 129.638 182.451 126.207 187.292C122.957 191.937 115.858 193.233 110.982 190.098Z" fill="#15ACCA" fill-opacity="0.1"/>
<path d="M132.028 211.569C128.959 216.674 121.396 218.267 116.275 214.892C111.435 211.703 109.789 204.643 112.702 199.776C115.771 194.671 123.334 193.078 128.454 196.453C133.313 199.655 134.971 206.696 132.028 211.569Z" fill="#15ACCA" fill-opacity="0.1"/>
<path d="M161.816 112.075C166.72 115.045 168.637 122.021 165.899 127.029C163.071 132.215 155.587 134.095 150.334 130.922C145.137 127.785 143.361 120.273 146.666 115.298C149.803 110.578 156.856 109.068 161.816 112.075Z" fill="#15ACCA" fill-opacity="0.1"/>
<path d="M187.138 107.487C192.228 110.867 193.697 118.439 190.192 123.23C186.837 127.832 179.718 129.036 174.921 125.822C169.831 122.442 168.362 114.87 171.849 110.067C175.21 105.495 182.341 104.273 187.138 107.487Z" fill="#15ACCA" fill-opacity="0.1"/>
<path d="M192.612 251.809C189.375 256.883 181.772 258.292 176.737 254.79C171.944 251.448 170.451 244.358 173.537 239.553C176.773 234.48 184.358 233.058 189.4 236.591C194.193 239.933 195.679 246.992 192.612 251.809Z" fill="#15ACCA" fill-opacity="0.1"/>
<path d="M119.355 224.206C123.565 219.486 128.435 218.686 133.78 222.288C138.883 225.729 139.822 232.48 135.845 237.091C131.674 241.915 126.564 242.347 121.479 238.472C116.294 234.505 116.11 229.457 119.355 224.206Z" fill="#15ACCA" fill-opacity="0.1"/>
<path d="M120.349 161.658C116.495 166.612 111.666 168.041 106.148 164.457C100.686 160.91 99.4838 155.82 102.925 150.436C106.372 145.083 111.49 144.028 116.989 147.52C122.531 151.068 123.281 156.07 120.349 161.658Z" fill="#15ACCA" fill-opacity="0.1"/>
<path d="M167.021 256.247C163.221 261.158 158.357 262.643 152.829 259.236C147.37 255.847 146.082 250.806 149.094 245.218C151.969 239.881 158.776 238.418 163.813 242C169.1 245.772 169.935 250.646 167.021 256.247Z" fill="#15ACCA" fill-opacity="0.1"/>
<path d="M137.091 118.055C142.015 122.217 143.196 127.135 139.486 132.316C135.765 137.515 130.543 138.24 125.263 134.499C119.927 130.72 119.105 125.54 122.765 120.353C126.473 115.093 131.548 114.795 137.091 118.055Z" fill="#15ACCA" fill-opacity="0.1"/>
<path d="M92.4933 218.478C88.0773 214.808 86.5139 210.266 89.4841 205.515C92.4608 200.795 97.4495 199.733 102.268 202.751C107.106 205.782 108.269 210.768 105.323 215.482C102.39 220.257 97.596 220.74 92.4933 218.478Z" fill="#15ACCA" fill-opacity="0.1"/>
<path d="M128.119 263.285C123.79 259.646 122.208 255.092 125.19 250.323C128.179 245.585 133.217 244.529 138.048 247.529C142.904 250.572 144.074 255.588 141.135 260.333C138.166 265.163 133.359 265.664 128.119 263.285Z" fill="#15ACCA" fill-opacity="0.1"/>
<path d="M114.192 136.348C110.26 140.648 105.669 141.92 100.988 138.652C96.3445 135.408 95.3412 130.423 98.5115 125.857C101.67 121.308 106.686 120.448 111.372 123.667C116.096 126.912 116.393 131.667 114.192 136.348Z" fill="#15ACCA" fill-opacity="0.1"/>
<path d="M183.663 96.9417C180.142 101.146 175.634 102.577 170.796 99.5464C165.99 96.5096 164.821 91.5728 167.755 86.8768C170.701 82.1625 175.677 81.1186 180.477 84.1247C185.327 87.1373 185.949 91.8452 183.663 96.9417Z" fill="#15ACCA" fill-opacity="0.1"/>
<path d="M97.0823 177.845C101.515 181.815 102.894 186.392 99.6934 190.964C96.5352 195.513 91.5254 196.404 86.8392 193.184C82.1836 189.959 81.199 184.986 84.3319 180.395C87.5197 175.762 92.2936 175.554 97.0823 177.845Z" fill="#15ACCA" fill-opacity="0.1"/>
<path d="M158.789 101.667C155.177 105.969 150.656 107.418 145.831 104.369C141.024 101.333 139.867 96.3774 142.801 91.6814C145.747 86.9672 150.712 85.9414 155.524 88.9293C160.411 91.9665 160.96 96.7046 158.789 101.667Z" fill="#15ACCA" fill-opacity="0.1"/>
<path d="M81.6697 167.714C77.4285 164.185 76.5619 160.05 79.7974 155.71C83.0691 151.315 87.4651 150.989 91.8321 154.286C95.9495 157.393 96.5263 161.52 93.6757 165.642C90.5789 170.179 86.3738 170.499 81.6697 167.714Z" fill="#15ACCA" fill-opacity="0.1"/>
<path d="M121.542 108.881C116.864 105.405 115.585 101.365 118.595 96.7981C121.612 92.2614 125.884 91.5132 130.483 94.6222C134.757 97.4913 135.665 101.522 133.082 105.848C130.266 110.569 126.114 111.134 121.542 108.881Z" fill="#15ACCA" fill-opacity="0.1"/>
<path d="M170.858 280.185C167.137 284.651 162.914 285.406 158.449 282.096C153.908 278.736 153.487 274.292 156.747 269.995C159.821 265.941 164.024 265.462 168.304 268.361C173.009 271.593 173.254 275.816 170.858 280.185Z" fill="#15ACCA" fill-opacity="0.1"/>
<path d="M98.3708 242.633C93.721 238.992 92.6634 234.862 95.8229 230.393C98.9945 225.906 103.351 225.397 107.858 228.603C112.066 231.612 112.797 235.71 110.072 239.967C107.076 244.675 102.852 244.983 98.3708 242.633Z" fill="#15ACCA" fill-opacity="0.1"/>
<path d="M77.1633 142.235C73.5479 139.302 72.4471 135.563 75.1292 131.697C77.5638 128.165 81.454 127.427 85.1474 129.835C89.1585 132.452 90.0172 136.477 87.3538 140.356C84.9126 143.857 81.2083 144.272 77.1633 142.235Z" fill="#15ACCA" fill-opacity="0.1"/>
<path d="M104.687 100.001C108.037 102.523 109.435 105.933 107.418 109.767C105.203 113.941 101.195 115.02 97.0886 112.628C92.9758 110.206 91.9996 106.156 94.5322 102.192C96.8667 98.5679 100.532 98.0489 104.687 100.001Z" fill="#15ACCA" fill-opacity="0.1"/>
<path d="M114.803 264.338C111.942 267.824 108.158 269.052 104.185 266.459C100.23 263.879 99.3699 259.775 101.922 255.902C104.27 252.339 108.215 251.559 111.936 253.722C116.042 256.114 116.695 260.003 114.803 264.338Z" fill="#15ACCA" fill-opacity="0.1"/>
<path d="M134.395 286.552C130.834 283.497 129.621 279.684 132.279 275.855C134.912 272.061 139.094 271.41 142.971 274.149C146.494 276.654 147.332 280.587 145.071 284.18C142.588 288.152 138.681 288.59 134.395 286.552Z" fill="#15ACCA" fill-opacity="0.1"/>
<path d="M175.866 70.8658C173.314 74.0057 170.165 74.839 166.664 72.5054C162.808 69.9379 162.258 66.379 164.933 62.8487C167.378 59.5861 170.782 59.2612 174.161 61.698C177.578 64.1595 177.876 67.3688 175.866 70.8658Z" fill="#15ACCA" fill-opacity="0.1"/>
<path d="M70.9816 185.04C74.1979 187.684 75.0428 190.835 72.6992 194.269C70.1081 198.038 66.5147 198.448 62.8832 195.661C59.5265 193.109 59.2014 189.698 61.6398 186.404C64.1516 183.081 67.4096 182.896 70.9816 185.04Z" fill="#15ACCA" fill-opacity="0.1"/>
<path d="M76.1495 209.725C79.4687 212.253 80.486 215.386 78.2544 218.894C75.8182 222.713 72.2713 223.337 68.5182 220.653C65.0706 218.198 64.5799 214.835 66.9061 211.468C69.2684 208.046 72.4931 207.708 76.1495 209.725Z" fill="#15ACCA" fill-opacity="0.1"/>
<path d="M64.7454 160.127C67.8496 162.697 68.9698 165.715 67.1019 168.834C65.0361 172.294 61.4784 173.015 58.0881 170.676C55.0409 168.589 54.4273 165.25 56.4193 162.186C58.4595 159.05 61.6518 159.005 64.7454 160.127Z" fill="#15ACCA" fill-opacity="0.1"/>
<path d="M141.799 77.5784C138.27 74.6765 137.352 71.5556 139.653 68.1457C142.182 64.3886 145.751 63.9363 149.387 66.6738C152.719 69.1837 153.099 72.5523 150.71 75.8518C148.273 79.2244 145.005 79.22 141.799 77.5784Z" fill="#15ACCA" fill-opacity="0.1"/>
<path d="M83.1443 243.971C80.6091 246.598 77.5655 247.474 74.4128 245.344C71.2788 243.226 70.5115 239.917 72.5156 236.835C74.7484 233.407 78.314 232.795 81.6573 235.287C84.651 237.496 84.8867 240.717 83.1443 243.971Z" fill="#15ACCA" fill-opacity="0.1"/>
<path d="M172.109 294.557C175.415 297.47 176.458 300.647 174.088 303.958C171.97 306.887 168.664 307.511 165.555 305.436C162.129 303.152 161.446 299.715 163.748 296.384C165.852 293.395 169.058 293.411 172.109 294.557Z" fill="#15ACCA" fill-opacity="0.1"/>
<path d="M125.578 80.3058C123 82.9567 119.913 83.8576 116.814 81.6055C113.759 79.4086 113.108 76.0447 115.255 73.0311C117.409 70.0481 120.771 69.4603 123.876 71.6635C126.949 73.8727 127.209 77.0574 125.578 80.3058Z" fill="#15ACCA" fill-opacity="0.1"/>
<path d="M148.469 307.25C146.563 309.899 144.332 310.682 141.833 309.349C138.973 307.831 138.113 305.273 139.802 302.508C141.478 299.761 144.091 299.334 146.795 301.168C149.219 302.818 149.262 305.153 148.469 307.25Z" fill="#15ACCA" fill-opacity="0.1"/>
<path d="M108.905 282.04C111.442 279.127 114.196 278.689 116.955 280.847C119.77 283.043 119.927 285.977 117.774 288.593C115.863 290.923 113.18 291.252 110.575 289.43C107.633 287.387 107.522 284.667 108.905 282.04Z" fill="#15ACCA" fill-opacity="0.1"/>
<path d="M87.4113 267.719C85.4508 270.043 83.0511 270.715 80.4138 268.82C78.1502 267.171 77.6558 264.749 79.1608 262.465C80.8825 259.853 83.4889 259.395 86.1009 261.248C88.4073 262.873 88.6106 265.208 87.4113 267.719Z" fill="#15ACCA" fill-opacity="0.1"/>
<path d="M99.4524 84.1568C97.6671 86.2557 95.3797 87.0017 93.001 85.4865C90.2553 83.7556 89.7198 81.0705 91.6338 78.5323C93.2763 76.3655 95.7917 76.0055 98.1234 77.6732C100.431 79.3775 100.646 81.6943 99.4524 84.1568Z" fill="#15ACCA" fill-opacity="0.1"/>
<path d="M80.288 114.135C78.259 116.807 75.6364 117.41 72.7187 115.33C70.1254 113.49 69.6352 110.94 71.3262 108.333C73.2459 105.38 75.9819 104.929 78.9116 106.991C81.5357 108.825 81.8523 111.314 80.288 114.135Z" fill="#15ACCA" fill-opacity="0.1"/>
<path d="M60.2636 143.624C58.4156 145.656 56.1215 146.371 53.7723 144.771C51.0868 142.948 50.594 140.239 52.5894 137.781C54.2826 135.7 56.8474 135.346 59.1189 137.105C61.3531 138.84 61.5751 141.187 60.2636 143.624Z" fill="#15ACCA" fill-opacity="0.1"/>
</svg>
