<svg width="197" height="409" viewBox="0 0 197 409" fill="none" xmlns="http://www.w3.org/2000/svg">
<path d="M-173 231.619L-170.701 231.279C-165.291 275.301 -147.264 315.227 -118.592 346.725C-74.1733 395.523 -10.9551 415.878 50.5049 401.148L51.0073 403.652C-11.2256 418.574 -75.2359 397.964 -120.215 348.551C-149.274 316.627 -167.513 276.193 -173 231.619Z" fill="#78B84C" fill-opacity="0.25"/>
<path d="M-120.236 59.7129C-47.763 -19.9043 70.1722 -19.9043 142.645 59.7129C215.118 139.33 215.118 268.891 142.645 348.508L141.003 346.704C212.568 268.085 212.568 140.137 141.003 61.5171C69.438 -17.1025 -47.0287 -17.1025 -118.594 61.5171C-140.214 85.2685 -156.212 114.751 -164.809 146.759L-167.031 146.037C-158.317 113.626 -142.146 83.7827 -120.236 59.7129Z" fill="#78B84C" fill-opacity="0.25"/>
<path d="M-27.7578 24.628C29.4709 9.68517 88.4385 28.0241 129.979 73.6591L126.694 77.2674C86.3132 32.9059 28.9685 15.0765 -26.6758 29.5948L-27.7578 24.628Z" fill="#78B84C" fill-opacity="0.25"/>
<path d="M-84.3309 349.634C-53.2434 374.341 -14.9299 386.185 23.5574 383.001C62.4505 379.774 99.0638 361.308 126.673 330.977C148.95 306.504 164.233 275.748 170.822 242.042C178.512 202.774 173.952 161.342 157.973 125.386L162.147 123.136C178.589 160.111 183.284 202.71 175.362 243.103C168.581 277.764 152.873 309.39 129.939 334.564C101.537 365.766 63.8803 384.762 23.8666 388.074C-15.7028 391.342 -55.1176 379.159 -87.0938 353.752L-84.3309 349.634Z" fill="#78B84C" fill-opacity="0.25"/>
<path d="M-74.5573 109.891C-27.2596 57.9308 49.6958 57.9308 96.9935 109.891C116.141 130.926 128.081 157.585 131.52 187.004L126.902 187.662C123.579 159.368 112.102 133.749 93.6896 113.521C48.2081 63.5557 -25.7912 63.5557 -71.2728 113.521C-79.3489 122.393 -86.1499 132.433 -91.5211 143.364L-95.6172 140.944C-90.0334 129.546 -82.962 119.124 -74.5573 109.891Z" fill="#78B84C" fill-opacity="0.25"/>
<path d="M24.4609 331.444C50.892 328.132 74.8307 315.439 93.688 294.745C110.207 276.597 121.298 253.715 125.722 228.605L130.282 229.582C125.683 255.689 114.168 279.483 96.9725 298.353C77.3617 319.897 52.4763 333.078 24.9826 336.516L24.4609 331.444Z" fill="#78B84C" fill-opacity="0.25"/>
<path d="M11.1842 93.7588C38.0211 93.7588 63.2542 105.242 82.2467 126.085C121.41 169.11 121.41 239.133 82.2467 282.157C43.0831 325.182 -20.6567 325.182 -59.8203 282.157L-58.178 280.353C-19.9225 322.38 42.3489 322.38 80.6044 280.353C118.86 238.326 118.86 169.916 80.6044 127.89C62.0563 107.513 37.4221 96.3058 11.2035 96.3058V93.7588H11.1842Z" fill="#78B84C" fill-opacity="0.25"/>
<path d="M-32.9796 155.59C-8.61588 128.824 31.0307 128.824 55.3945 155.59C79.7582 182.355 79.7582 225.91 55.3945 252.676L52.1099 249.067C74.6575 224.297 74.6575 183.99 52.1099 159.198C29.5623 134.428 -7.12817 134.428 -29.6757 159.198C-52.2233 183.968 -52.2233 224.276 -29.6757 249.046L-32.9603 252.654C-57.3433 225.889 -57.3433 182.355 -32.9796 155.59Z" fill="#78B84C" fill-opacity="0.25"/>
<path d="M-10.7647 179.999C1.3495 166.69 21.0569 166.69 33.1518 179.999L31.5095 181.803C20.3034 169.492 2.08369 169.492 -9.12247 181.803C-20.3286 194.114 -20.3286 214.13 -9.12247 226.441C2.08369 238.751 20.3034 238.751 31.5095 226.441C37.7309 219.606 40.7256 210.182 39.7402 200.567L42.0588 200.269C43.1214 210.649 39.8755 220.858 33.1518 228.245C21.0375 241.553 1.33018 241.553 -10.7647 228.245C-22.8597 214.936 -22.8597 193.307 -10.7647 179.999Z" fill="#78B84C" fill-opacity="0.25"/>
</svg>
