<svg width="66" height="161" viewBox="0 0 66 161" fill="none" xmlns="http://www.w3.org/2000/svg">
<path d="M-14.0691 155.935C-35.3709 157.576 -56.1019 149.988 -72.4438 134.577L-71.7836 133.728C-38.483 165.142 11.4615 161.296 39.5596 125.153C53.1708 107.645 59.6857 85.2592 57.9042 62.1248C56.1226 38.9904 46.2566 17.8602 30.1256 2.64809L30.7858 1.79888C47.1281 17.2155 57.1176 38.6137 58.9226 62.052C60.7276 85.4903 54.1269 108.166 40.3429 125.903C26.558 143.628 7.23266 154.295 -14.0691 155.935Z" fill="#78B84C" fill-opacity="0.25"/>
<path d="M-14.5373 149.864C-33.5574 151.328 -53.1858 144.828 -68.89 130.013L-68.2298 129.164C-37.2543 158.385 9.21155 154.807 35.3529 121.187C61.4891 87.5684 57.5515 36.4364 26.576 7.21545L27.2362 6.36624C58.6445 35.9955 62.6367 87.8367 36.1357 121.931C22.8846 138.97 4.47779 148.399 -14.5373 149.864Z" fill="#78B84C" fill-opacity="0.25"/>
<path d="M-14.9951 143.861C-33.3656 145.275 -51.2426 138.73 -65.337 125.44L-64.6769 124.59C-50.7928 137.688 -33.1812 144.129 -15.0869 142.735C3.01241 141.341 19.4299 132.275 31.1401 117.212C42.8551 102.143 48.4577 82.8788 46.9245 62.9698C45.3909 43.0551 36.8998 24.8765 23.0213 11.7842L23.6815 10.935C37.7708 24.2262 46.3915 42.6836 47.9481 62.8966C49.5047 83.1096 43.8112 102.664 31.9235 117.961C20.0395 133.241 3.37536 142.446 -14.9951 143.861Z" fill="#78B84C" fill-opacity="0.25"/>
<path d="M-15.4628 137.786C-31.6694 139.034 -48.3987 133.494 -61.7832 120.867L-61.1231 120.018C-34.7867 144.863 4.71672 141.821 26.9386 113.237C49.1605 84.6525 45.8132 41.1869 19.4769 16.3423L20.1371 15.4931C46.9062 40.746 50.3085 84.9265 27.721 113.975C16.4275 128.502 0.743702 136.538 -15.4628 137.786Z" fill="#78B84C" fill-opacity="0.25"/>
<path d="M-15.9315 131.754C-30.7312 132.894 -46.0133 127.837 -58.2381 116.304L-57.5779 115.455C-33.5611 138.111 2.45849 135.338 22.7181 109.271C42.9828 83.205 39.9307 43.5726 15.9144 20.9218L16.5746 20.0726C41.0187 43.1321 44.1262 83.485 23.501 110.015C13.1958 123.277 -1.13179 130.614 -15.9315 131.754Z" fill="#78B84C" fill-opacity="0.25"/>
<path d="M-16.3966 125.717C-29.7946 126.749 -43.6248 122.169 -54.6843 111.736L-54.0241 110.887C-32.3324 131.35 0.208499 128.844 18.5113 105.301C27.3795 93.8936 31.6237 79.3094 30.4629 64.2355C29.3021 49.1615 22.8749 35.3991 12.3648 25.4843L13.025 24.6351C23.7455 34.7432 30.2971 48.7848 31.4809 64.1571C32.6647 79.5293 28.3352 94.4089 19.2938 106.039C9.9621 118.042 -2.99862 124.685 -16.3966 125.717Z" fill="#78B84C" fill-opacity="0.25"/>
<path d="M-16.8649 119.685C-28.8561 120.609 -41.2339 116.511 -51.1392 107.167L-50.479 106.318C-31.1069 124.592 -2.04971 122.355 14.296 101.329C30.6416 80.3039 28.1795 48.3324 8.8074 30.0575L9.46758 29.2083C29.2725 47.8915 31.7897 80.5779 15.0788 102.073C6.73039 112.812 -4.8737 118.762 -16.8649 119.685Z" fill="#78B84C" fill-opacity="0.25"/>
</svg>
