<svg width="40" height="37" viewBox="0 0 40 37" fill="none" xmlns="http://www.w3.org/2000/svg">
<path fill-rule="evenodd" clip-rule="evenodd" d="M12.1011 0.111C14.1379 0.0201818 14.7873 0 19.9758 0C25.1643 0 25.8137 0.0218636 27.8488 0.111C29.8839 0.200136 31.273 0.514636 32.4885 0.970409C33.7613 1.43627 34.9161 2.1645 35.8711 3.10632C36.8435 4.02964 37.5937 5.14636 38.0729 6.38082C38.5452 7.55809 38.8682 8.90355 38.962 10.8713C39.0557 12.8474 39.0766 13.4764 39.0766 18.5C39.0766 23.5253 39.054 24.1543 38.962 26.127C38.8699 28.0948 38.5452 29.4402 38.0729 30.6175C37.5936 31.8521 36.8423 32.9707 35.8711 33.8954C34.9161 34.8372 33.7613 35.5637 32.4885 36.0279C31.273 36.4854 29.8839 36.7982 27.8523 36.889C25.8137 36.9798 25.1643 37 19.9758 37C14.7873 37 14.1379 36.9781 12.1011 36.889C10.0694 36.7999 8.68028 36.4854 7.46477 36.0279C6.19009 35.5637 5.03519 34.8359 4.08046 33.8954C3.10872 32.9715 2.35673 31.8534 1.87692 30.6192C1.40635 29.4419 1.08337 28.0965 0.989605 26.1287C0.895837 24.1526 0.875 23.5236 0.875 18.5C0.875 13.4747 0.897574 12.8457 0.989605 10.8746C1.08164 8.90355 1.40635 7.55809 1.87692 6.38082C2.35743 5.1465 3.11 4.02848 4.0822 3.10464C5.03557 2.16366 6.18931 1.43534 7.46304 0.970409C8.67854 0.514636 10.0677 0.201818 12.0993 0.111H12.1011ZM27.6942 3.441C25.68 3.35186 25.0757 3.33336 19.9758 3.33336C14.8759 3.33336 14.2716 3.35186 12.2573 3.441C10.3941 3.52341 9.38353 3.82445 8.7098 4.07841C7.819 4.41477 7.18173 4.81336 6.51321 5.46086C5.87948 6.058 5.39178 6.78493 5.08586 7.58836C4.82365 8.24091 4.51283 9.21973 4.42775 11.0243C4.33572 12.9752 4.31661 13.5605 4.31661 18.5C4.31661 23.4395 4.33572 24.0248 4.42775 25.9757C4.51283 27.7803 4.82365 28.7591 5.08586 29.4116C5.39147 30.2139 5.87941 30.9421 6.51321 31.5391C7.12964 32.153 7.88152 32.6256 8.7098 32.9216C9.38353 33.1755 10.3941 33.4766 12.2573 33.559C14.2716 33.6481 14.8741 33.6666 19.9758 33.6666C25.0774 33.6666 25.68 33.6481 27.6942 33.559C29.5574 33.4766 30.568 33.1755 31.2418 32.9216C32.1326 32.5852 32.7698 32.1866 33.4384 31.5391C34.0722 30.9421 34.5601 30.2139 34.8657 29.4116C35.1279 28.7591 35.4387 27.7803 35.5238 25.9757C35.6159 24.0248 35.635 23.4395 35.635 18.5C35.635 13.5605 35.6159 12.9752 35.5238 11.0243C35.4387 9.21973 35.1279 8.24091 34.8657 7.58836C34.5184 6.72559 34.1069 6.10836 33.4384 5.46086C32.8218 4.84712 32.0713 4.37476 31.2418 4.07841C30.568 3.82445 29.5574 3.52341 27.6942 3.441V3.441ZM17.5361 24.203C18.8986 24.7524 20.4158 24.8265 21.8284 24.4128C23.2411 23.9991 24.4617 23.1232 25.2817 21.9347C26.1016 20.7462 26.4702 19.3188 26.3243 17.8964C26.1784 16.474 25.5272 15.1447 24.4818 14.1357C23.8155 13.4907 23.0097 12.9968 22.1226 12.6896C21.2355 12.3824 20.2891 12.2695 19.3515 12.359C18.414 12.4486 17.5086 12.7384 16.7005 13.2075C15.8925 13.6767 15.2019 14.3135 14.6784 15.0722C14.155 15.8309 13.8118 16.6925 13.6734 17.5951C13.5351 18.4977 13.6051 19.4188 13.8784 20.292C14.1517 21.1652 14.6215 21.9689 15.2539 22.6452C15.8864 23.3215 16.6658 23.8535 17.5361 24.203ZM13.0335 11.7761C13.9452 10.8931 15.0275 10.1927 16.2187 9.71479C17.4098 9.23692 18.6865 8.99096 19.9758 8.99096C21.2651 8.99096 22.5418 9.23691 23.7329 9.71479C24.9241 10.1927 26.0064 10.8931 26.9181 11.7761C27.8297 12.6591 28.5529 13.7074 29.0463 14.861C29.5397 16.0147 29.7936 17.2513 29.7936 18.5C29.7936 19.7487 29.5397 20.9853 29.0463 22.139C28.5529 23.2926 27.8297 24.3409 26.9181 25.2239C25.0769 27.0072 22.5796 28.009 19.9758 28.009C17.3719 28.009 14.8747 27.0072 13.0335 25.2239C11.1923 23.4406 10.1579 21.022 10.1579 18.5C10.1579 15.978 11.1923 13.5594 13.0335 11.7761V11.7761ZM31.9711 10.4071C32.197 10.2007 32.3779 9.95246 32.503 9.67714C32.6281 9.40181 32.6948 9.10497 32.6994 8.8042C32.7039 8.50343 32.6461 8.20483 32.5293 7.92609C32.4126 7.64735 32.2392 7.39413 32.0196 7.18143C31.8 6.96873 31.5386 6.80086 31.2508 6.68778C30.963 6.57469 30.6547 6.51869 30.3442 6.52307C30.0336 6.52746 29.7271 6.59214 29.4429 6.71331C29.1586 6.83447 28.9023 7.00964 28.6892 7.22845C28.2748 7.654 28.0478 8.21925 28.0566 8.8042C28.0654 9.38915 28.3093 9.94775 28.7364 10.3614C29.1635 10.7751 29.7402 11.0112 30.3442 11.0198C30.9481 11.0283 31.5317 10.8085 31.9711 10.4071V10.4071Z" fill="white"/>
</svg>
