<svg width="10" height="15" viewBox="0 0 10 15" fill="none" xmlns="http://www.w3.org/2000/svg">
<path d="M9.7758 13.9588L1.80591 7.49934L9.7758 1.03984C9.91848 0.924426 9.99836 0.769497 9.99836 0.608168C9.99836 0.446839 9.91848 0.291911 9.7758 0.176501C9.7065 0.12062 9.62378 0.0762251 9.53249 0.0459179C9.4412 0.0156107 9.34317 0 9.24415 0C9.14512 0 9.0471 0.0156107 8.95581 0.0459179C8.86452 0.0762251 8.7818 0.12062 8.71249 0.176501L0.232213 7.04829C0.0833269 7.16896 -3.57628e-07 7.33082 -3.57628e-07 7.49934C-3.57628e-07 7.66786 0.0833269 7.82971 0.232213 7.95039L8.71086 14.8222C8.78021 14.8785 8.86313 14.9232 8.95473 14.9537C9.04632 14.9843 9.14473 15 9.24415 15C9.34357 15 9.44198 14.9843 9.53357 14.9537C9.62516 14.9232 9.70808 14.8785 9.77744 14.8222C9.92012 14.7068 10 14.5518 10 14.3905C10 14.2292 9.92012 14.0743 9.77744 13.9588H9.7758Z" fill="white"/>
</svg>
