<svg width="187" height="229" viewBox="0 0 187 229" fill="none" xmlns="http://www.w3.org/2000/svg">
<path d="M91.5127 112.943C92.2311 115.244 92.9886 117.65 93.689 119.875C94.1105 121.178 94.5002 122.363 94.8146 123.291C94.8961 123.814 95.1185 124.489 95.2524 125.011C95.1895 124.712 95.2766 124.782 95.3381 124.999C95.8088 126.56 95.4253 125.069 95.9389 126.624C96.2424 127.463 96.8572 129.489 97.4669 131.543C98.3205 134.449 99.1879 137.396 99.6036 138.794C99.8371 138.563 99.9673 138.415 100.085 138.308C100.742 137.539 101.445 136.799 102.132 136.065C102.479 135.692 102.828 135.336 103.168 134.975C103.298 134.827 103.438 134.685 103.561 134.549C103.653 134.443 103.737 134.348 103.822 134.253L103.763 134.348C104.484 133.537 108.762 129.197 109.599 128.261L109.473 128.38C110.19 127.534 110.154 127.74 110.771 127.142C110.621 127.131 111.213 126.404 111.458 126.131L111.463 126.167C111.815 125.764 112.595 124.794 113.195 124.137L113.214 124.214C113.682 123.622 114.66 122.627 115.024 122.248C115.879 121.39 117.25 120.116 118.319 118.867L119.169 118.25L119.258 118.126L121.484 115.276C121.979 114.619 118.659 114.806 118.682 114.706C118.903 114.728 119.131 114.738 119.178 114.768C119.129 114.721 118.704 114.671 118.461 114.684L118.395 114.791C117.846 114.794 118.282 114.721 117.764 114.695C117.753 114.607 118.243 114.615 118.664 114.63C118.284 114.591 117.923 114.5 117.751 114.589C117.395 114.533 117.817 114.483 117.399 114.421C117.085 114.423 116.665 114.49 116.324 114.41L116.331 114.399C115.501 114.245 114.984 114.449 114.225 114.307L114.318 114.283C114.057 114.22 113.493 114.247 113.002 114.156C113.145 114.179 113.251 114.261 112.944 114.251C112.391 114.155 111.977 114.193 111.571 114.09L111.142 114.151C109.151 114 101.239 113.606 99.2259 113.491L99.3116 113.478C97.3874 113.303 94.5641 113.128 91.5127 112.943Z" fill="#15ACCA" fill-opacity="0.25"/>
<path d="M101.577 86.4805C103.961 86.0586 106.447 85.6183 108.754 85.2145C110.103 84.9701 111.348 84.7264 112.318 84.5257C112.815 84.5224 113.514 84.3823 114.038 84.3141C113.743 84.3279 113.855 84.2507 114.077 84.208C115.686 83.9442 114.19 84.1307 115.811 83.8257C116.696 83.6374 118.781 83.2762 120.887 82.9444C123.859 82.4773 126.881 81.9922 128.31 81.7649C128.233 81.4889 128.178 81.3246 128.134 81.1837C127.816 80.3682 127.539 79.5289 127.276 78.666C127.146 78.2434 127.006 77.8149 126.878 77.4099C126.823 77.2456 126.768 77.0812 126.722 76.9227C126.683 76.8171 126.644 76.7115 126.605 76.6058L126.656 76.6702C126.329 75.7842 124.821 70.6003 124.458 69.5616L124.485 69.7085C124.132 68.8227 124.288 68.8863 124.093 68.1465C124.008 68.3059 123.689 67.5551 123.583 67.2617L123.609 67.2615C123.45 66.8214 123.017 65.8538 122.77 65.1143L122.846 65.0961C122.582 64.5097 122.245 63.3237 122.086 62.8836C121.792 61.8385 121.408 60.2 120.897 58.874L120.809 57.8747L120.751 57.7574L119.449 54.9662C119.145 54.3389 117.546 57.8849 117.472 57.856C117.601 57.6257 117.73 57.3954 117.783 57.3304C117.719 57.372 117.442 57.8209 117.325 58.0746L117.378 58.1566C117.091 58.7291 117.261 58.2633 116.961 58.8124C116.873 58.8071 117.151 58.2935 117.385 57.8507C117.154 58.2464 116.885 58.6188 116.866 58.8189C116.631 59.1793 116.812 58.7369 116.533 59.1682C116.373 59.4928 116.203 59.9586 115.949 60.3074L115.946 60.2898C115.372 61.1584 115.275 61.7178 114.751 62.5037L114.774 62.4036C114.571 62.6696 114.304 63.2714 113.965 63.7796C114.062 63.6436 114.18 63.537 114.017 63.844C113.634 64.423 113.443 64.8596 113.152 65.2674L112.98 65.7156C111.796 67.8059 107.249 76.1365 106.093 78.2443L106.135 78.1558C105.009 80.2986 103.358 83.2745 101.577 86.4805Z" fill="#15ACCA" fill-opacity="0.25"/>
<path d="M109.48 14.2625C109.492 15.5742 109.496 16.9623 109.504 18.2387C109.517 18.9798 109.523 19.668 109.544 20.2032C109.51 20.4916 109.522 20.8739 109.506 21.174C109.52 21.0033 109.553 21.056 109.551 21.1855C109.548 22.0796 109.584 21.2382 109.597 22.1263C109.612 22.6086 109.615 23.7673 109.61 24.938C109.594 26.591 109.581 28.2616 109.573 29.0558C109.712 28.9784 109.794 28.9308 109.858 28.8892C110.269 28.6041 110.69 28.3424 111.112 28.0807C111.323 27.9499 111.534 27.819 111.745 27.6882C111.826 27.6406 111.908 27.593 111.987 27.5278C112.035 27.4921 112.1 27.4505 112.148 27.4149L112.109 27.4563C112.553 27.1592 115.116 25.642 115.632 25.2914L115.558 25.3272C115.999 25.0125 115.967 25.1068 116.326 24.9044C116.253 24.8755 116.637 24.5905 116.783 24.5013L116.785 24.5189C117.011 24.3645 117.498 23.9965 117.863 23.7646L117.86 23.8117C118.155 23.5862 118.742 23.2469 118.967 23.0925C119.48 22.789 120.284 22.3718 120.951 21.9026L121.427 21.7229L121.482 21.6755L122.901 20.5777C123.228 20.3226 121.678 19.8566 121.698 19.8035C121.799 19.8499 121.901 19.8962 121.922 19.9255C121.908 19.8844 121.722 19.7857 121.605 19.7629L121.567 19.8044C121.321 19.7178 121.525 19.7458 121.286 19.6474C121.289 19.6004 121.518 19.693 121.703 19.7741C121.535 19.687 121.382 19.5762 121.289 19.6004C121.138 19.5073 121.327 19.5589 121.148 19.4484C121.011 19.3964 120.804 19.3507 120.653 19.2576L120.66 19.2458C120.302 19.0247 120.042 19.0441 119.712 18.8404L119.764 18.8401C119.658 18.7585 119.395 18.6779 119.187 18.5499C119.244 18.5848 119.286 18.6433 119.149 18.5913C118.903 18.44 118.714 18.3884 118.551 18.2718L118.354 18.232C117.465 17.8145 113.905 16.2561 112.992 15.8564L113.027 15.8621C112.114 15.4624 110.849 14.8944 109.48 14.2625Z" fill="#15ACCA" fill-opacity="0.25"/>
<path d="M175.443 143.721C176.662 143.478 177.94 143.222 179.115 142.985C179.804 142.839 180.443 142.711 180.935 142.59C181.187 142.583 181.544 142.51 181.818 142.467C181.671 142.473 181.719 142.438 181.838 142.413C182.658 142.267 181.893 142.366 182.728 142.196C183.186 142.087 184.251 141.88 185.327 141.678C186.855 141.397 188.392 141.122 189.126 140.988C189.083 140.847 189.055 140.765 189.037 140.688C188.864 140.272 188.717 139.855 188.567 139.421C188.489 139.21 188.418 138.987 188.349 138.781C188.322 138.699 188.294 138.617 188.267 138.535C188.244 138.488 188.228 138.429 188.195 138.377L188.226 138.412C188.048 137.96 187.222 135.348 187.019 134.832L187.037 134.908C186.843 134.462 186.925 134.497 186.818 134.121C186.777 134.21 186.608 133.828 186.545 133.676L186.562 133.67C186.474 133.453 186.24 132.966 186.107 132.591L186.15 132.585C186.008 132.285 185.823 131.699 185.743 131.47C185.583 130.947 185.367 130.113 185.085 129.451L185.032 128.945L184.999 128.892L184.303 127.485C184.133 127.169 183.362 128.992 183.317 128.98C183.38 128.856 183.453 128.738 183.475 128.703C183.434 128.726 183.305 128.957 183.251 129.086L183.281 129.122C183.142 129.411 183.219 129.181 183.07 129.464C183.035 129.459 183.159 129.193 183.281 128.975C183.167 129.181 183.033 129.376 183.027 129.47C182.911 129.659 182.997 129.435 182.859 129.66C182.783 129.825 182.699 130.067 182.573 130.25L182.564 130.244C182.278 130.687 182.243 130.976 181.979 131.383L181.999 131.33C181.902 131.466 181.765 131.773 181.605 132.033C181.648 131.962 181.711 131.903 181.635 132.068C181.446 132.375 181.35 132.593 181.21 132.8L181.133 133.03C180.549 134.105 178.308 138.396 177.726 139.488L177.739 139.447C177.14 140.545 176.325 142.08 175.443 143.721Z" fill="#15ACCA" fill-opacity="0.25"/>
<path d="M49.6229 166.984C51.0738 168.71 52.5951 170.511 53.9966 172.19C54.8313 173.161 55.5956 174.056 56.2104 174.728C56.4549 175.156 56.8911 175.653 57.193 176.051C57.0414 175.811 57.1409 175.839 57.2839 176.009C58.2492 177.191 57.3929 176.043 58.3989 177.201C58.9643 177.827 60.2229 179.336 61.4879 180.898C63.2682 183.104 65.0768 185.327 65.9223 186.386C66.0782 186.091 66.1706 185.919 66.2486 185.772C66.6762 184.845 67.1416 183.942 67.6143 183.027C67.8553 182.573 68.0869 182.112 68.3134 181.681C68.4059 181.51 68.489 181.333 68.5814 181.162C68.6375 181.05 68.6914 180.92 68.7475 180.808L68.7249 180.908C69.1889 179.923 72.1455 174.491 72.6969 173.364L72.6095 173.505C73.0619 172.497 73.093 172.679 73.5328 171.923C73.3729 171.971 73.7473 171.11 73.9083 170.785L73.9199 170.808C74.1567 170.319 74.6368 169.18 75.0273 168.377L75.0693 168.436C75.3513 167.746 76.0373 166.506 76.274 166.016C76.8748 164.936 77.8534 163.306 78.5331 161.801L79.1954 160.938L79.2471 160.79L80.6011 157.452C80.9007 156.691 77.6032 158.131 77.5924 158.043C77.8193 157.971 78.0461 157.898 78.1246 157.898C78.0606 157.875 77.6121 157.99 77.3802 158.091L77.3503 158.203C76.8006 158.419 77.2173 158.186 76.68 158.361C76.6452 158.29 77.1374 158.105 77.5743 157.966C77.1781 158.081 76.7849 158.148 76.6357 158.284C76.2614 158.363 76.6657 158.172 76.2245 158.275C75.9089 158.407 75.5067 158.616 75.1397 158.683L75.1469 158.671C74.2623 158.859 73.8106 159.233 72.9928 159.397L73.0815 159.338C72.798 159.375 72.2432 159.62 71.7162 159.735C71.8616 159.711 71.9946 159.728 71.6936 159.835C71.0997 159.975 70.7027 160.154 70.2571 160.222L69.8477 160.442C67.7874 161.079 59.6775 163.775 57.612 164.442L57.6862 164.406C55.6688 165.038 52.7629 165.969 49.6229 166.984Z" fill="#15ACCA" fill-opacity="0.25"/>
<path d="M123.266 140.137C123.454 142.666 123.64 145.323 123.809 147.775C123.925 149.215 124.032 150.52 124.131 151.543C124.096 152.108 124.151 152.843 124.168 153.408C124.181 153.09 124.244 153.178 124.248 153.425C124.353 155.136 124.304 153.524 124.454 155.247C124.552 156.187 124.701 158.398 124.837 160.65C125.01 163.837 125.196 167.065 125.286 168.588C125.552 168.41 125.697 168.303 125.833 168.208C126.604 167.591 127.408 167.027 128.219 166.451C128.62 166.16 129.023 165.886 129.407 165.602C129.567 165.489 129.711 165.382 129.863 165.263C129.966 165.18 130.062 165.109 130.165 165.026L130.098 165.115C130.936 164.474 135.826 161.147 136.801 160.411L136.662 160.488C137.495 159.812 137.431 160 138.129 159.566C137.991 159.514 138.695 158.921 138.976 158.719L138.98 158.755C139.396 158.44 140.321 157.657 141.017 157.141L141.018 157.223C141.579 156.737 142.691 155.988 143.116 155.68C144.092 155.026 145.635 154.086 146.892 153.084L147.81 152.672L147.928 152.565L150.601 150.235C151.207 149.696 148.078 149.023 148.12 148.934C148.321 149.009 148.522 149.085 148.579 149.119C148.554 149.055 148.159 148.893 147.943 148.841L147.858 148.936C147.353 148.804 147.776 148.837 147.293 148.669C147.299 148.575 147.752 148.707 148.135 148.846C147.797 148.719 147.476 148.521 147.29 148.569C146.982 148.413 147.374 148.475 146.996 148.307C146.707 148.226 146.3 148.188 146 148.019L146.008 148.007C145.265 147.648 144.758 147.71 144.08 147.373L144.167 147.379C143.941 147.239 143.412 147.125 142.984 146.91C143.105 146.968 143.196 147.073 142.914 146.981C142.413 146.738 142.038 146.669 141.682 146.466L141.283 146.416C139.464 145.752 132.215 143.289 130.382 142.648L130.453 142.66C128.639 142.031 126.058 141.125 123.266 140.137Z" fill="#15ACCA" fill-opacity="0.25"/>
<path d="M133.351 103.418C134.879 105.061 136.478 106.779 137.956 108.375C138.83 109.304 139.64 110.146 140.286 110.789C140.547 111.21 141.005 111.672 141.324 112.064C141.165 111.836 141.272 111.853 141.415 112.022C142.433 113.139 141.524 112.057 142.583 113.15C143.17 113.74 144.508 115.184 145.833 116.669C147.705 118.768 149.615 120.89 150.516 121.902C150.662 121.601 150.755 121.43 150.823 121.276C151.215 120.344 151.652 119.424 152.097 118.491C152.319 118.025 152.534 117.571 152.758 117.122C152.841 116.945 152.924 116.768 153.007 116.591C153.061 116.461 153.108 116.343 153.164 116.231L153.141 116.331C153.577 115.328 156.349 109.816 156.863 108.665L156.775 108.807C157.192 107.792 157.24 107.968 157.651 107.195C157.484 107.255 157.83 106.376 157.982 106.046L158.003 106.075C158.221 105.574 158.656 104.424 159.037 103.615L159.079 103.674C159.342 102.972 159.973 101.715 160.21 101.225C160.766 100.133 161.695 98.4561 162.33 96.94L162.964 96.0593L163.015 95.9119L164.251 92.533C164.522 91.7547 161.252 93.3415 161.241 93.2534C161.475 93.1694 161.702 93.0973 161.761 93.0851C161.697 93.062 161.244 93.2063 161.012 93.3078L160.982 93.4198C160.434 93.6529 160.849 93.403 160.316 93.6125C160.281 93.5422 160.771 93.3389 161.197 93.1772C160.802 93.3093 160.411 93.3942 160.262 93.5305C159.89 93.6271 160.292 93.4186 159.844 93.5333C159.538 93.6707 159.13 93.9087 158.763 93.9759L158.77 93.9641C157.883 94.1995 157.441 94.579 156.627 94.7786L156.716 94.7192C156.425 94.7682 155.882 95.0366 155.357 95.1695C155.51 95.1332 155.643 95.1499 155.334 95.2697C154.743 95.4266 154.348 95.6234 153.907 95.7263L153.507 95.9526C151.457 96.6782 143.381 99.7209 141.336 100.482L141.417 100.434C139.365 101.207 136.474 102.262 133.351 103.418Z" fill="#15ACCA" fill-opacity="0.25"/>
<path d="M46.329 126.159C48.0768 127.53 49.895 128.977 51.5861 130.312C52.5802 131.088 53.5039 131.787 54.2322 132.318C54.556 132.68 55.0671 133.077 55.4389 133.404C55.2487 133.205 55.3628 133.21 55.5276 133.344C56.6908 134.289 55.6512 133.355 56.8457 134.271C57.5152 134.749 59.0343 135.962 60.5576 137.21C62.7119 138.978 64.8946 140.763 65.9162 141.621C66.027 141.314 66.1006 141.132 66.1597 140.972C66.4521 140.012 66.7897 139.062 67.1345 138.101C67.3022 137.618 67.472 137.152 67.6419 136.686C67.706 136.497 67.7629 136.321 67.8271 136.132C67.8643 136.008 67.9015 135.884 67.9387 135.76L67.9255 135.866C68.2544 134.847 70.4322 129.114 70.8201 127.935L70.7516 128.089C71.0595 127.04 71.124 127.21 71.4454 126.413C71.2897 126.497 71.5458 125.595 71.6523 125.253L71.6806 125.271C71.844 124.752 72.1556 123.591 72.4443 122.742L72.4937 122.789C72.6762 122.07 73.1798 120.767 73.362 120.259C73.8066 119.115 74.5534 117.375 75.0268 115.825L75.5737 114.874L75.616 114.721L76.4788 111.291C76.662 110.508 73.5196 112.5 73.5088 112.411C73.7313 112.304 73.9537 112.197 74.0206 112.173C73.9494 112.161 73.5117 112.364 73.2841 112.501L73.2636 112.619C72.7342 112.928 73.1255 112.632 72.599 112.894C72.5475 112.83 73.0217 112.568 73.4405 112.353C73.0529 112.538 72.6589 112.67 72.5308 112.836C72.1651 112.985 72.5513 112.718 72.1114 112.903C71.8096 113.076 71.4255 113.361 71.0576 113.493L71.0555 113.475C70.1808 113.816 69.7807 114.254 68.9729 114.571L69.0521 114.506C68.7584 114.602 68.2406 114.935 67.7244 115.139C67.8749 115.085 68.0057 115.084 67.7112 115.245C67.1208 115.484 66.7492 115.728 66.3144 115.883L65.9304 116.168C63.93 117.153 56.0693 121.241 54.0638 122.254L54.1358 122.201C52.195 123.173 49.3685 124.61 46.329 126.159Z" fill="#15ACCA" fill-opacity="0.25"/>
<path d="M63.7757 97.4944C63.9886 94.8871 64.2104 92.1386 64.4152 89.6078C64.5215 88.1248 64.624 86.7535 64.6869 85.7002C64.8104 85.1405 64.865 84.3755 64.9245 83.7927C64.8682 84.1166 64.8123 84.017 64.8417 83.758C65.0013 81.9981 64.7931 83.6465 64.915 81.8634C64.9699 80.8866 65.1621 78.6088 65.3739 76.278C65.6879 72.9995 66.0047 69.6739 66.1526 68.1023C65.8726 68.2395 65.7075 68.317 65.5759 68.3826C64.7447 68.8647 63.8903 69.2999 63.0359 69.7351C62.617 69.9496 62.1815 70.1702 61.7699 70.373C61.5976 70.4624 61.442 70.5458 61.2863 70.6292C61.1715 70.6888 61.066 70.7542 60.9605 70.8197L61.0398 70.7544C60.1417 71.2605 54.9812 73.7365 53.9421 74.3023L54.0926 74.2483C53.1894 74.7838 53.2797 74.595 52.5431 74.9234C52.6659 74.9991 51.9037 75.4748 51.5997 75.6298L51.6049 75.6004C51.1547 75.8446 50.1577 76.4689 49.413 76.874L49.4284 76.7856C48.8218 77.178 47.6424 77.7389 47.1996 77.9713C46.1685 78.4606 44.5573 79.1303 43.2039 79.91L42.2661 80.1633L42.1461 80.2524L39.2429 82.1308C38.581 82.5705 41.4598 83.8393 41.4088 83.922C41.2294 83.8115 41.05 83.7009 41.0079 83.6424C41.0333 83.7069 41.3775 83.9517 41.5809 84.0444L41.6675 83.9673C42.1236 84.1995 41.7349 84.0904 42.1671 84.3404C42.135 84.4348 41.7406 84.208 41.384 84.0045C41.6883 84.2084 41.9634 84.4595 42.1444 84.4406C42.4153 84.6564 42.0484 84.5118 42.3854 84.7684C42.6454 84.896 43.0268 85.017 43.2904 85.2446L43.2736 85.2506C43.9213 85.7639 44.43 85.784 45.0116 86.2565L44.931 86.2394C45.1285 86.4263 45.6159 86.6289 45.9855 86.9381C45.8795 86.8565 45.812 86.7334 46.0648 86.8729C46.5077 87.2111 46.8578 87.3617 47.1613 87.6302L47.5427 87.7512C49.1688 88.7696 55.7068 92.6195 57.3642 93.6083L57.2908 93.5794C58.9315 94.5742 61.2686 95.9819 63.7757 97.4944Z" fill="#15ACCA" fill-opacity="0.25"/>
</svg>
