<svg width="30" height="20" viewBox="0 0 30 20" fill="none" xmlns="http://www.w3.org/2000/svg">
<path d="M2.54513 2.865C4.64897 0.96375 7.83247 0 12.0057 0H13.5052V3.52375L12.2996 3.725C10.2452 4.0675 8.81616 4.74125 8.0514 5.73C7.65236 6.26266 7.42605 6.87255 7.39461 7.5H12.0057C12.4034 7.5 12.7848 7.6317 13.066 7.86612C13.3472 8.10054 13.5052 8.41848 13.5052 8.75V17.5C13.5052 18.8787 12.1601 20 10.5061 20H1.50896C1.11126 20 0.729847 19.8683 0.44863 19.6339C0.167414 19.3995 0.00942878 19.0815 0.00942878 18.75V12.5L0.0139274 8.85125C0.000431645 8.7125 -0.284479 5.425 2.54513 2.865ZM27.0009 20H18.0038C17.6061 20 17.2247 19.8683 16.9434 19.6339C16.6622 19.3995 16.5042 19.0815 16.5042 18.75V12.5L16.5087 8.85125C16.4952 8.7125 16.2103 5.425 19.0399 2.865C21.1438 0.96375 24.3273 0 28.5005 0H30V3.52375L28.7944 3.725C26.74 4.0675 25.311 4.74125 24.5462 5.73C24.1472 6.26266 23.9209 6.87255 23.8894 7.5H28.5005C28.8982 7.5 29.2796 7.6317 29.5608 7.86612C29.842 8.10054 30 8.41848 30 8.75V17.5C30 18.8787 28.6549 20 27.0009 20Z" fill="white"/>
</svg>
