<svg width="10" height="15" viewBox="0 0 10 15" fill="none" xmlns="http://www.w3.org/2000/svg">
<path d="M0.224199 1.04116L8.19409 7.50066L0.224199 13.9602C0.0815158 14.0756 0.00163574 14.2305 0.00163574 14.3918C0.00163574 14.5532 0.0815158 14.7081 0.224199 14.8235C0.293501 14.8794 0.376219 14.9238 0.46751 14.9541C0.558801 14.9844 0.656829 15 0.755852 15C0.854876 15 0.952903 14.9844 1.04419 14.9541C1.13548 14.9238 1.2182 14.8794 1.28751 14.8235L9.76779 7.95171C9.91667 7.83104 10 7.66918 10 7.50066C10 7.33214 9.91667 7.17029 9.76779 7.04961L1.28914 0.177823C1.21979 0.121547 1.13687 0.0768174 1.04527 0.0462751C0.953679 0.0157337 0.85527 -5.96046e-08 0.755852 -5.96046e-08C0.656435 -5.96046e-08 0.558025 0.0157337 0.466431 0.0462751C0.374838 0.0768174 0.291917 0.121547 0.222563 0.177823C0.0798793 0.293233 0 0.448162 0 0.609491C0 0.77082 0.0798793 0.925748 0.222563 1.04116H0.224199Z" fill="white"/>
</svg>
