<svg width="167" height="12" viewBox="0 0 167 12" fill="none" xmlns="http://www.w3.org/2000/svg">
<path d="M160.607 5.62732C159.034 5.81765 157.518 5.97625 155.945 6.16658C154.203 6.38863 152.462 6.61068 150.721 6.89617C148.698 7.21339 146.676 7.56232 144.598 7.94298C143.137 8.19675 141.677 8.51396 140.216 8.76774C139.486 8.89462 138.699 8.98979 137.913 9.08495C137.295 9.14839 136.733 9.24356 136.115 9.307C135.947 9.307 135.722 9.307 135.554 9.307C135.61 9.18011 135.722 9.02151 135.778 8.89462C135.834 8.73601 135.947 8.60913 136.003 8.45052C136.228 8.00642 136.452 7.5306 136.677 7.0865C136.789 6.76929 136.902 6.45207 137.014 6.16658C137.07 6.00797 137.07 5.84937 137.07 5.65904C137.07 5.50043 137.014 5.34182 136.958 5.18322C136.902 4.92945 136.677 4.64395 136.452 4.4219C136.284 4.29502 136.115 4.16813 135.834 4.07297C135.554 3.9778 135.273 3.91436 134.992 3.88264C134.767 3.85092 134.486 3.85092 134.205 3.8192C133.981 3.8192 133.7 3.8192 133.475 3.8192C132.857 3.85092 132.239 3.94608 131.621 4.07297C131.172 4.16813 130.723 4.23158 130.217 4.29502C129.431 4.4219 128.644 4.54879 127.858 4.7074C126.173 5.02461 124.487 5.3101 122.802 5.65904C120.724 6.07142 118.701 6.48379 116.623 6.89617C114.713 7.27683 112.803 7.65749 110.893 7.9747C109.714 8.19675 108.534 8.35536 107.298 8.54569C106.119 8.73601 104.883 8.89462 103.647 8.98979C102.411 9.08495 101.119 9.11667 99.8271 9.05323C99.4339 9.02151 99.0407 8.95806 98.7036 8.89462C98.4789 8.83118 98.2542 8.76774 98.0295 8.67257C97.861 8.57741 97.6925 8.51396 97.524 8.4188C97.4678 8.38708 97.4116 8.32364 97.4116 8.29191C97.2993 8.10159 97.2431 7.87954 97.1869 7.68921C97.1307 7.30855 97.1307 6.92789 97.1307 6.57896C97.1307 6.23002 97.1307 5.88109 97.0746 5.53215C97.0746 4.99289 97.0184 4.48535 96.9061 3.94608C96.7375 3.27993 96.5128 2.58206 95.8388 1.97936C95.6702 1.85247 95.5017 1.72558 95.277 1.5987C95.0523 1.47181 94.8276 1.37665 94.6029 1.28149C94.1535 1.09116 93.648 0.964271 93.1424 0.869107C92.8615 0.837385 92.5807 0.837385 92.2998 0.805664C92.2436 0.805664 92.1875 0.805664 92.1313 0.805664C91.9066 0.805664 91.7381 0.805664 91.5134 0.837385C90.8393 0.869107 90.1652 0.93255 89.4911 1.02771C88.8732 1.12288 88.3115 1.24976 87.6936 1.37665C87.1318 1.50353 86.5139 1.5987 85.9522 1.72558C84.7163 1.97936 83.4805 2.29657 82.2447 2.61378C81.1212 2.89928 79.9978 3.21649 78.8743 3.5337C78.2564 3.72403 77.6385 3.88264 77.0205 4.07297C76.0656 4.35846 75.1668 4.64395 74.2119 4.92945C72.8075 5.37355 71.347 5.81765 69.9426 6.26174C68.3698 6.76929 66.7407 7.27683 65.1679 7.75265C63.2018 8.38708 61.1234 8.98979 59.0449 9.49733C58.2023 9.68766 57.3597 9.87798 56.5171 10.0366C55.6745 10.1952 54.8319 10.3538 53.9331 10.4172C53.259 10.449 52.585 10.4807 51.8547 10.449C51.63 10.4172 51.4053 10.3855 51.1806 10.3538C51.0683 10.3221 50.8997 10.2586 50.7874 10.2269C50.6189 10.1318 50.5065 10.0683 50.338 9.97315C50.2818 9.94143 50.2818 9.90971 50.2257 9.87798C50.1133 9.65593 50.001 9.40216 49.9448 9.18011C49.8886 8.83118 49.8324 8.48224 49.8324 8.13331C49.7763 7.78437 49.7201 7.43544 49.7201 7.11822C49.6639 6.57896 49.5516 6.00797 49.3831 5.46871C49.2707 5.1515 49.1022 4.866 48.9337 4.54879C48.709 4.19985 48.4843 3.88264 48.1472 3.56543C47.8664 3.31165 47.4731 3.0896 47.1361 2.86756C46.7429 2.64551 46.2373 2.45518 45.7879 2.29657C45.5071 2.10624 45.0015 2.01108 44.4398 1.91591C43.7657 1.78903 43.0916 1.75731 42.4175 1.72558C39.7773 1.5987 37.1372 1.91591 34.6094 2.23313C31.9692 2.55034 29.3852 2.96272 26.8574 3.40682C25.6777 3.59715 24.5543 3.78748 23.3746 4.00953C21.577 4.39018 19.7233 4.77084 17.9258 5.1515C14.9485 5.78592 11.9713 6.48379 9.0503 7.18167C8.26387 7.37199 7.47744 7.56232 6.691 7.75265C5.96074 7.91126 5.28666 8.10159 4.5564 8.29191C3.03971 8.70429 1.57919 9.11667 0.0625 9.52905C2.81501 9.08495 5.51135 8.60913 8.20769 8.16503C10.3985 7.81609 12.5892 7.46716 14.78 7.0865C17.1955 6.67412 19.611 6.23002 22.0264 5.78592C22.7005 5.65904 23.4308 5.53215 24.1049 5.37355C25.3407 5.11977 26.5765 4.92945 27.8123 4.7074C29.6661 4.39018 31.5198 4.07297 33.3735 3.78748C34.3285 3.66059 35.2273 3.5337 36.1822 3.40682C37.1934 3.27993 38.2045 3.15305 39.2718 3.05788C40.5638 2.96272 41.8558 2.931 43.1478 3.02616C43.5972 3.12133 43.9904 3.18477 44.4398 3.27993C44.7768 3.3751 45.17 3.50198 45.4509 3.62887C45.7318 3.75575 46.0126 3.91436 46.2373 4.04125C46.462 4.23158 46.6305 4.4219 46.7991 4.61223C47.1361 5.08805 47.3608 5.56387 47.5293 6.0397C47.6978 6.76929 47.754 7.5306 47.8664 8.26019C47.8664 8.4188 47.9225 8.54569 47.9225 8.70429C47.9225 9.02151 48.0349 9.37044 48.0911 9.68766C48.1472 9.84626 48.2034 9.97315 48.2596 10.1318C48.3158 10.2904 48.4281 10.4172 48.5966 10.5441C48.709 10.671 48.9337 10.7979 49.1022 10.9248C49.2145 11.02 49.3831 11.0834 49.4954 11.1468C49.6639 11.2103 49.7763 11.2737 49.9448 11.3372C50.3942 11.4958 50.8997 11.6227 51.4053 11.6861C51.967 11.7495 52.5288 11.7813 53.0344 11.7813C54.3263 11.7813 55.6183 11.6227 56.798 11.4323C57.4159 11.3372 57.9776 11.2103 58.5394 11.0834C59.1011 10.9565 59.719 10.8296 60.2808 10.7027C61.5166 10.3855 62.7524 10.0683 63.9882 9.71938C64.4938 9.56077 65.0555 9.40216 65.5611 9.24356C65.9543 9.11667 66.2914 8.98979 66.6846 8.89462C67.808 8.54569 68.9315 8.16503 70.1112 7.81609C71.4032 7.40372 72.7513 6.99134 74.0433 6.57896C75.4477 6.13486 76.7959 5.72248 78.2002 5.27838C78.8743 5.05633 79.5484 4.866 80.2786 4.67567C81.7953 4.23158 83.312 3.8192 84.8849 3.47026C85.896 3.21649 86.9071 2.99444 87.9744 2.80411C88.9855 2.61378 90.0529 2.39173 91.1202 2.29657C91.6257 2.26485 92.0751 2.23313 92.5245 2.26485C92.5807 2.26485 92.6368 2.29657 92.7492 2.29657C92.9177 2.32829 93.0301 2.39173 93.1424 2.42346C93.3109 2.51862 93.4795 2.61378 93.648 2.70895C93.7603 2.77239 93.8165 2.86756 93.9288 2.96272C94.1535 3.31165 94.2659 3.69231 94.3782 4.07297C94.4906 4.54879 94.4906 5.05633 94.4906 5.53215C94.4906 5.88109 94.4906 6.23002 94.4906 6.57896C94.4906 6.95962 94.4906 7.34027 94.4906 7.75265C94.4906 7.91126 94.5468 8.10159 94.6029 8.26019C94.6591 8.4188 94.7153 8.54569 94.7715 8.70429C94.8276 8.8629 94.9961 9.02151 95.1085 9.14839C95.1647 9.24356 95.277 9.307 95.3894 9.37044C95.5017 9.46561 95.6141 9.56077 95.7826 9.65594C95.9511 9.78282 96.1758 9.84626 96.3443 9.94143C96.569 10.0366 96.7937 10.1318 97.0746 10.2269C97.2993 10.2904 97.524 10.3538 97.7487 10.4172C98.0295 10.4807 98.3104 10.5441 98.5913 10.6076C99.153 10.7027 99.7709 10.7345 100.389 10.7662C101.063 10.7979 101.737 10.7662 102.411 10.7662C103.647 10.7345 104.883 10.6076 106.062 10.4807C107.354 10.3221 108.646 10.1 109.938 9.87798C112.466 9.46561 114.882 8.95806 117.353 8.45052C118.084 8.29191 118.87 8.13331 119.6 7.9747C121.285 7.62576 122.971 7.24511 124.656 6.92789C126.06 6.6424 127.465 6.35691 128.869 6.10314C129.543 5.97625 130.217 5.88109 130.891 5.7542C131.228 5.69076 131.621 5.62732 131.958 5.56387C132.52 5.46871 133.082 5.37355 133.7 5.3101C133.925 5.3101 134.149 5.3101 134.374 5.3101C134.43 5.3101 134.43 5.3101 134.486 5.3101C134.542 5.40527 134.542 5.46871 134.599 5.56387C134.599 5.69076 134.599 5.78592 134.599 5.91281C134.374 6.54724 134.037 7.14994 133.7 7.78437C133.531 8.10159 133.363 8.4188 133.138 8.73601C133.082 8.83118 133.026 8.92634 132.913 9.02151C132.801 9.18011 132.801 9.33872 132.801 9.49733C132.801 9.56077 132.857 9.62421 132.857 9.71938C132.857 9.81454 132.913 9.87799 132.97 9.97315C133.026 10.1318 133.194 10.2586 133.307 10.4172C133.363 10.449 133.419 10.4807 133.419 10.5124C133.531 10.6076 133.644 10.671 133.812 10.7345C134.093 10.8613 134.318 10.9248 134.655 10.9882C135.217 11.0834 135.834 11.1151 136.396 11.0834C136.958 11.0517 137.52 10.9882 138.081 10.9248C138.587 10.8613 139.149 10.7979 139.654 10.7345C140.946 10.5759 142.182 10.3221 143.418 10.0683C145.833 9.56077 148.193 9.05323 150.552 8.51396C153.81 7.75265 157.18 7.05478 160.439 6.35691C161.281 6.16658 162.124 5.97625 163.023 5.81765C164.09 5.5956 165.157 5.34182 166.224 5.1515C164.371 5.18322 162.517 5.40527 160.607 5.62732ZM134.374 5.21494C134.43 5.21494 134.43 5.24666 134.486 5.24666C134.43 5.21494 134.374 5.21494 134.374 5.21494ZM135.666 9.33872C135.722 9.33872 135.722 9.33872 135.778 9.37044C135.722 9.33872 135.722 9.33872 135.666 9.33872Z" fill="#FAF4F4"/>
</svg>
