<svg width="39" height="36" viewBox="0 0 39 36" fill="none" xmlns="http://www.w3.org/2000/svg">
<path d="M38.9516 4.18938C37.5467 4.89733 36.0376 5.37568 34.451 5.59189C36.0881 4.4779 37.3128 2.72462 37.8967 0.659195C36.3587 1.69814 34.6754 2.42944 32.92 2.82131C31.7396 1.38793 30.1761 0.437867 28.4722 0.118615C26.7683 -0.200637 25.0194 0.128789 23.497 1.05575C21.9747 1.98271 20.764 3.45534 20.0529 5.245C19.3419 7.03467 19.1703 9.04124 19.5648 10.9532C16.4484 10.7752 13.3997 9.85404 10.6166 8.24939C7.83346 6.64475 5.37814 4.39251 3.40994 1.63885C2.73697 2.95908 2.35 4.48978 2.35 6.11998C2.34925 7.58754 2.66703 9.03261 3.27514 10.327C3.88326 11.6214 4.7629 12.725 5.83603 13.5401C4.59149 13.495 3.3744 13.1126 2.28607 12.4246V12.5394C2.28595 14.5977 2.912 16.5926 4.05799 18.1858C5.20399 19.7789 6.79935 20.872 8.57337 21.2797C7.41884 21.635 6.20842 21.6874 5.0335 21.4328C5.53403 23.2038 6.509 24.7525 7.82193 25.8621C9.13486 26.9717 10.72 27.5865 12.3555 27.6206C9.57919 30.0993 6.15046 31.4437 2.62088 31.4378C1.99565 31.438 1.37095 31.3965 0.75 31.3135C4.33272 33.9332 8.50328 35.3236 12.7627 35.3182C27.1812 35.3182 35.0635 21.737 35.0635 9.95822C35.0635 9.57555 35.055 9.18904 35.0399 8.80637C36.5731 7.5454 37.8965 5.98393 38.9482 4.19512L38.9516 4.18938V4.18938Z" fill="white"/>
</svg>
