<svg width="220" height="172" viewBox="0 0 220 172" fill="none" xmlns="http://www.w3.org/2000/svg">
<g clip-path="url(#clip0_1535_1985)">
<path d="M202.678 41.8108C177.709 5.23917 124.962 -9.59585 73.0868 6.38182C45.662 14.8287 19.2195 31.7534 6.11522 64.525C-17.3101 123.108 31.8743 141.818 64.0355 147.781C79.587 150.664 94.2338 155.508 107.618 162.102C131.698 173.966 174.321 184.479 206.461 135.06C229.756 99.2408 219.311 66.1711 202.678 41.8108Z" fill="#F2F2F2"/>
<path d="M57.9153 49.046C57.8455 48.4647 57.7042 47.8955 57.4951 47.3526C57.4684 47.2499 57.4217 47.1542 57.358 47.0716C57.2942 46.9889 57.2148 46.9212 57.1248 46.8726C57.0045 46.8397 56.8784 46.8382 56.7575 46.8683L54.8714 47.1721C54.7135 47.1797 54.5624 47.2415 54.441 47.3481C54.1954 47.62 54.4373 48.0578 54.4298 48.433C54.4213 48.8548 54.0652 49.1972 53.679 49.3105C53.2849 49.3943 52.8783 49.389 52.4862 49.2949L49.8488 48.8636C50.6256 48.6026 51.3169 48.117 51.844 47.4622C52.1911 47.0295 52.3757 46.2215 51.8741 46.0166C51.7251 45.9736 51.5697 45.9604 51.4161 45.9779C50.2212 45.9877 49.2809 44.9376 48.1623 44.4953C47.4463 44.2306 46.6692 44.2109 45.9419 44.4391C45.2147 44.6672 44.5747 45.1316 44.1133 45.7658L45.5182 45.8371C45.6504 45.8294 45.7815 45.8662 45.8925 45.9421C46.2004 46.2084 45.8176 46.7198 45.861 47.1367C45.9173 47.6784 46.6007 47.7941 47.1158 47.8489C47.6309 47.9036 48.2844 48.3442 48.0366 48.8226C45.4476 49.7612 42.8129 46.9878 40.0939 47.3292C39.4058 47.4156 38.7559 47.7002 38.0841 47.8791C33.9797 48.9721 29.7366 46.0559 25.5438 46.6735C24.6117 46.8407 23.6956 47.095 22.8064 47.4334C22.2357 47.6306 21.6405 47.8437 21.2259 48.3011C20.8113 48.7584 20.6535 49.5406 21.0463 50.0188C19.9636 50.1127 18.8737 50.0036 17.8273 49.6968C18.1103 49.8623 18.3457 50.105 18.5088 50.3994C18.672 50.6937 18.7568 51.0289 18.7544 51.3696C17.064 51.6598 15.4184 52.1879 13.8617 52.9399C14.1523 53.4484 14.4916 53.9242 14.8744 54.3598L12.7344 55.8068C13.4574 55.9986 13.8312 57.0362 13.4107 57.6843C14.1604 57.3333 14.625 56.4252 15.4267 56.2411C15.9519 56.1205 16.4863 56.3466 16.9845 56.559C17.4827 56.7715 18.0303 56.9775 18.5461 56.818C19.0618 56.6586 19.4422 55.9547 19.1145 55.5062C21.319 54.8292 23.5973 54.4546 25.893 54.3915C26.0701 54.3682 26.2497 54.404 26.4064 54.4941C26.7052 54.7123 26.6266 55.1836 26.6105 55.5661C26.5944 55.9485 26.8776 56.4512 27.2023 56.2788C26.8202 56.6275 27.1469 57.284 27.5134 57.6507C27.88 58.0174 28.3218 58.5234 28.0974 59.0004C28.0388 59.1249 27.9395 59.2245 27.8831 59.3501C27.7168 59.7209 27.9809 60.1532 28.2924 60.3994C28.6039 60.6457 28.9855 60.8178 29.2019 61.1588C29.4183 61.4998 29.3201 62.0966 28.9331 62.1442L27.8332 60.6744C27.4574 61.0845 27.1998 61.5984 27.0902 62.1563C28.2566 63.1599 28.432 65.2025 27.4556 66.4099C26.9566 67.0269 26.247 67.4018 25.6277 67.8831C25.0083 68.3644 24.4353 69.0497 24.4368 69.86C24.4395 71.2598 24.3308 72.5604 24.8292 73.8582C25.7482 76.2514 26.8093 78.5813 28.0061 80.8343C28.3203 81.4259 28.7265 82.0744 29.3632 82.1763C28.5586 80.1145 27.8342 78.0207 27.1902 75.8949C27.6097 75.8966 28.0944 75.9317 28.3403 76.2893C28.5439 76.5855 28.5002 76.9882 28.5635 77.3477C28.644 77.696 28.7781 78.028 28.9607 78.3306L32.803 85.5345C33.1215 86.1317 33.4869 86.7727 34.0957 87.0145C34.4849 87.1692 34.9352 87.14 35.2934 87.3626C35.5742 87.5371 35.7633 87.8469 36.0496 88.0112C36.859 88.476 37.9845 87.5847 38.741 88.1395C38.9572 88.2982 39.0948 88.5502 39.2941 88.7319C39.9927 89.3687 41.1387 88.9427 41.9452 89.4177C42.465 89.7238 42.7343 90.3361 43.0115 90.891C43.706 92.2808 44.8296 93.6424 46.3178 93.7531C46.7853 93.7878 47.2628 93.6945 47.7197 93.804C48.1767 93.9134 48.6265 94.3332 48.5532 94.8203C48.4274 95.6556 48.8195 96.5701 48.7142 97.4085C48.5224 98.9356 46.4645 99.6066 46.2877 101.136C46.249 101.471 46.3096 101.816 46.2338 102.144C46.141 102.545 45.8544 102.872 45.7526 103.272C45.5596 104.028 46.0746 104.781 46.6403 105.29C47.206 105.799 47.8808 106.238 48.1901 106.95C48.517 107.704 48.3565 108.582 48.4628 109.402C48.6949 111.193 50.1646 112.521 51.6771 113.377C52.1379 113.638 52.6327 113.89 52.931 114.343C53.3203 114.933 53.2815 115.712 53.4115 116.417C53.7299 118.146 55.1121 119.57 55.1514 121.33C55.1793 122.58 54.5186 123.715 54.124 124.896C53.754 126.026 53.6201 127.228 53.7315 128.418C53.8428 129.608 54.1968 130.759 54.7692 131.793C55.0644 132.317 55.4175 132.812 55.6263 133.381C55.999 134.396 55.8781 135.549 56.2217 136.576C56.676 137.933 57.9242 139.053 57.8048 140.487C58.3715 141.725 59.6229 142.334 60.8812 142.703L63.1365 143.363C63.5683 143.49 64.0196 143.617 64.4593 143.526C64.899 143.434 65.3186 143.05 65.3073 142.578C64.2013 142.316 63.0599 142.036 62.1482 141.327C61.2366 140.618 60.6121 139.355 60.958 138.218C61.1184 137.691 61.4596 137.083 61.1352 136.647C60.9494 136.398 60.6098 136.333 60.4003 136.106C60.0735 135.751 60.1857 135.155 60.4207 134.727C60.6556 134.299 60.9952 133.917 61.0899 133.433C61.1378 133.162 61.1058 132.883 60.9983 132.631C60.8909 132.38 60.713 132.17 60.4886 132.028C60.9068 131.862 61.2871 131.605 61.6049 131.274C61.8985 130.921 62.0341 130.378 61.8031 129.976C62.4889 130.068 63.2985 130.113 63.7486 129.561C64.1081 129.12 64.0834 128.461 63.9414 127.899C63.7993 127.338 63.5593 126.792 63.5518 126.212C65.1337 126.29 66.7191 126.234 68.2923 126.042C68.0648 125.236 67.5478 124.554 66.851 124.142C67.5635 124.016 68.2126 123.118 68.4377 122.395C68.6628 121.672 68.6054 120.885 68.4663 120.139C68.4128 119.947 68.4055 119.743 68.4449 119.548C68.5252 119.278 68.7764 119.114 69.0087 118.974L72.5453 116.836C72.7564 116.725 72.9477 116.576 73.1109 116.397C73.4814 115.938 73.4265 115.247 73.2368 114.679C73.0471 114.112 72.7432 113.578 72.6701 112.982C72.4515 111.197 74.2664 109.917 74.8789 108.237C75.1193 107.578 75.1683 106.861 75.2148 106.157C75.2648 105.4 75.2685 104.521 74.7166 104.034C74.1875 103.566 73.3609 103.671 72.8073 103.236C72.2997 102.837 72.1246 102.063 71.5702 101.741C71.0666 101.449 70.4353 101.635 69.8752 101.498C68.8892 101.255 68.2687 100.059 67.2616 99.9485C66.6934 99.886 66.0504 100.178 65.5847 99.8301C65.1743 99.5232 65.1579 98.9064 65.0798 98.383C64.9429 97.5695 64.5724 96.8197 64.0183 96.2346C63.4642 95.6495 62.7531 95.2572 61.9807 95.1105C61.3948 95.0116 60.7571 95.0492 60.2588 94.7103C59.7541 94.3672 59.5227 93.7248 59.1263 93.2496C58.4874 92.4838 57.4812 92.2117 56.5386 91.9785L52.7045 91.0298C52.0239 90.8614 51.1466 90.7721 50.7813 91.3996C50.6732 91.6385 50.5967 91.8919 50.5538 92.1527C50.417 92.6244 50.1415 93.0383 49.7671 93.3349C49.3927 93.6315 48.9386 93.7956 48.4701 93.8035C48.1487 93.2266 47.6282 92.8026 47.017 92.6201C46.6282 92.506 46.212 92.4933 45.8412 92.3256C45.6393 92.2218 45.4596 92.0758 45.3131 91.8964C45.1667 91.717 45.0565 91.5081 44.9894 91.2824C44.9224 91.0566 44.8997 90.8189 44.923 90.5836C44.9462 90.3484 45.0149 90.1206 45.1246 89.9142C45.3457 89.5 45.431 89.0207 45.3676 88.5503C45.3041 88.0799 45.0952 87.6446 44.7733 87.3115C44.1213 86.6954 43.1781 86.5465 42.3038 86.6082C42.0749 86.0823 42.4577 85.489 42.8703 85.1068C43.2829 84.7246 43.7839 84.3489 43.8737 83.7782C44.0151 82.8805 42.9268 82.1987 42.1005 82.4664C41.2743 82.734 40.7469 83.5788 40.3983 84.4114C40.1982 84.8892 40.0282 85.3923 39.7127 85.7952C39.3972 86.198 38.8891 86.4865 38.4085 86.3572C37.7281 86.1741 37.4654 85.3233 37.3148 84.6014C37.1128 83.6328 36.9095 82.6507 36.9519 81.6601C36.9942 80.6694 37.3115 79.6522 38.0056 78.9815C39.1366 77.8887 40.8716 77.9958 42.3979 78.1702C42.0373 77.7425 42.1264 77.0218 42.5123 76.6193C42.716 76.4288 42.9607 76.2935 43.2253 76.2251C43.4899 76.1566 43.7664 76.1572 44.0307 76.2266C44.4907 76.3274 44.905 76.5881 45.207 76.9669C45.6408 77.5235 45.7641 78.275 46.092 78.9068C46.4198 79.5386 47.157 80.0775 47.7604 79.7385C48.2816 79.4458 48.3643 78.6851 48.2346 78.0785C48.1049 77.4719 47.8294 76.882 47.8764 76.2622C47.9661 75.0795 49.1309 74.3676 50.1587 73.8805C51.1866 73.3934 52.3636 72.7383 52.5264 71.5643C52.532 71.3345 52.5732 71.1071 52.6484 70.8912C52.7624 70.7005 52.9208 70.5437 53.1086 70.4357C56.1085 68.349 59.1583 66.2369 62.587 65.0967C62.7653 65.0374 62.7863 65.1033 62.9681 65.0568C63.2225 64.9021 63.0539 64.4739 62.81 64.3014C62.566 64.1289 62.24 63.9967 62.1781 63.6943C62.1326 63.472 62.257 63.2538 62.2894 63.029C62.3688 62.4765 61.7409 61.9665 61.2533 62.1874C60.9779 61.8034 61.5229 61.3573 61.9635 61.2297C63.2868 60.8464 64.6451 60.6128 66.0154 60.533C66.1736 60.5065 66.3356 60.5355 66.4765 60.6155C66.7066 60.7833 66.6772 61.1682 66.5141 61.4077C66.351 61.6472 66.0973 61.7976 65.894 62.0003C65.6719 62.228 65.5135 62.5155 65.4361 62.8315C65.3587 63.1475 65.3652 63.4798 65.455 63.7922C66.1703 64.1752 66.9481 64.5695 67.7404 64.4345C68.5327 64.2996 69.236 63.3626 68.8635 62.6143C68.5167 61.9174 67.475 61.7602 67.2959 60.9965C67.0861 60.1022 68.2888 59.3069 68.0179 58.4311C67.8992 58.0475 67.536 57.8217 67.2572 57.5447C66.928 57.2051 66.7041 56.7687 66.6149 56.2927C66.5256 55.8167 66.5752 55.3235 66.7572 54.8777C66.3031 54.9618 65.8366 54.9301 65.3967 54.7851C64.9567 54.6402 64.5562 54.3864 64.2287 54.0449C63.6239 53.4025 63.1415 52.3891 62.2827 52.4179C61.4946 52.4443 60.8158 53.412 60.0789 53.1167C59.8976 53.0441 59.7064 52.8963 59.5308 52.9829C59.4732 53.0222 59.4249 53.0748 59.3895 53.1367C59.3541 53.1986 59.3325 53.2681 59.3263 53.3401C59.1391 54.2825 59.4612 55.3562 58.9732 56.1705C58.4422 57.0566 57.214 57.1795 56.5703 57.9785C56.2208 58.4123 56.0854 58.9968 55.7642 59.4541C55.443 59.9114 54.7613 60.2022 54.3758 59.8036C54.5653 59.3937 54.617 58.9283 54.5226 58.4834C54.4281 58.0385 54.1931 57.6405 53.8559 57.3544C53.4981 57.1087 53.1123 56.9112 52.7077 56.7666C52.2555 56.5651 51.8254 56.3128 51.4249 56.014C51.2242 55.8866 51.0611 55.703 50.9539 55.4837C50.8691 55.209 50.8805 54.9115 50.9861 54.645C51.1816 54.0551 51.5264 53.5327 51.9834 53.1341C52.4403 52.7354 52.992 52.4757 53.579 52.383C54.0922 52.3095 54.6896 52.3354 55.0292 51.9238C55.2089 51.706 55.3032 51.3768 55.5641 51.2883C55.7309 51.253 55.9042 51.2755 56.0579 51.3523L57.9736 52.062C58.1873 52.1636 58.4226 52.2045 58.656 52.1808C58.7717 52.1644 58.8773 52.1025 58.9515 52.0076C59.0257 51.9127 59.063 51.7917 59.056 51.669C58.9948 51.3342 58.5053 51.1735 58.5499 50.8358C58.5748 50.7263 58.6307 50.6274 58.7102 50.5521C59.4015 49.7776 60.247 49.1736 61.1861 48.7833C62.1252 48.393 63.1346 48.226 64.1422 48.2944C64.384 48.7123 64.0016 49.2073 63.6834 49.5641C63.3652 49.9209 63.1095 50.5584 63.4943 50.8331C63.652 50.9178 63.8274 50.9594 64.0044 50.954C64.476 51.0212 64.9343 51.1675 65.362 51.3874C66.0239 51.6906 66.6732 52.0224 67.3098 52.3827C67.2535 51.9409 67.1999 51.4755 67.359 51.0625C67.518 50.6494 67.9702 50.3254 68.3651 50.4863C68.7457 50.6413 68.9409 51.1717 69.3464 51.2203C69.8873 51.2852 70.1007 50.4441 69.8747 49.9228C69.6488 49.4015 69.2015 48.965 69.1642 48.3933C69.139 48.0077 69.2784 47.5294 68.9858 47.2959C68.8816 47.2258 68.7634 47.1821 68.6404 47.1684L61.3326 45.753C60.8986 45.669 60.2717 45.7334 60.2524 46.1974C60.2417 46.4564 60.4615 46.7126 60.3641 46.9507C60.2602 47.2048 59.9189 47.1816 59.6703 47.2715C59.2845 47.411 59.091 47.8931 59.128 48.3206C59.1958 48.7454 59.3521 49.1492 59.5857 49.5029C59.1104 49.2937 58.3907 49.2552 57.9153 49.046Z" fill="#3F3D56"/>
<path d="M52.0816 42.5167C51.6208 42.3562 51.1242 42.3488 50.6592 42.4953C50.1942 42.6419 49.7833 42.9354 49.4821 43.3361C49.3618 43.5029 49.2608 43.7328 49.3615 43.9133C49.5059 44.1722 49.8739 44.07 50.1452 43.9774C50.544 43.8274 50.978 43.8165 51.3832 43.9463C51.6379 44.0383 51.8658 44.201 52.1217 44.2896C52.2463 44.3445 52.3826 44.3626 52.5162 44.342C52.6498 44.3215 52.7756 44.263 52.88 44.173C53.0556 43.9845 53.0667 43.6914 53.067 43.4274C53.0792 43.3391 53.0724 43.249 53.0473 43.1637C53.0222 43.0785 52.9793 43.0002 52.9218 42.9346C52.8194 42.8721 52.7043 42.8363 52.5861 42.8301C52.3213 42.7785 52.082 42.6313 51.9093 42.4139" fill="#3F3D56"/>
<path d="M54.7207 41.7451C54.6175 41.7392 54.5147 41.7613 54.422 41.8093C54.3294 41.8573 54.25 41.9296 54.1916 42.0192C54.1331 42.1089 54.0976 42.2128 54.0884 42.3211C54.0791 42.4293 54.0965 42.5383 54.1388 42.6374C54.4555 42.7284 54.7864 42.7511 55.1117 42.7042C55.2739 42.6777 55.425 42.6012 55.546 42.4845C55.6671 42.3677 55.7525 42.2158 55.7916 42.048C55.4087 42.1214 55.0136 42.0419 54.6833 41.8252" fill="#3F3D56"/>
<path d="M63.5572 40.4549C62.6951 40.6478 61.8578 40.9472 61.0625 41.3469C61.4374 41.4985 61.7561 41.773 61.9717 42.1297C62.1872 42.4865 62.2881 42.9066 62.2596 43.3283C62.226 43.4902 62.2299 43.6583 62.271 43.8183C62.3626 44.052 62.6281 44.1398 62.8615 44.1998C63.2808 44.3341 63.7187 44.3929 64.1567 44.3738C64.3758 44.3617 64.5885 44.2923 64.7757 44.1719C64.9629 44.0515 65.1186 43.8839 65.2288 43.6842C65.2923 43.4947 65.3667 43.3094 65.4517 43.1295C66.0112 42.2327 67.6733 43.3171 68.274 42.4503C68.4856 42.1449 68.4662 41.6853 68.742 41.4434C68.8847 41.3379 69.0501 41.2715 69.2232 41.2501C70.4312 40.9975 71.6514 40.8145 72.8784 40.7022C73.4597 40.6489 74.2175 40.4292 74.2223 39.815C72.0326 39.3624 69.7621 39.6838 67.7639 40.7295C67.0439 41.109 66.0917 41.9074 65.3982 41.4042C65.1386 41.2158 65.1514 40.7085 64.794 40.4967C64.4287 40.2801 63.945 40.3682 63.5572 40.4549Z" fill="#3F3D56"/>
<path d="M70.7224 41.8644L71.7503 42.0723C71.5611 42.0635 71.3723 42.0972 71.1964 42.1713C71.0206 42.2454 70.8618 42.3581 70.7306 42.5019C70.5994 42.6456 70.4989 42.8172 70.4357 43.0051C70.3725 43.1931 70.3481 43.393 70.3642 43.5916C71.3267 43.9301 72.3762 43.6007 73.3902 43.6457C74.4041 43.6907 75.5839 44.4531 75.4108 45.5056C75.3585 45.8239 75.1838 46.1419 75.2746 46.4504C75.3383 46.6666 75.5195 46.8201 75.6217 47.0192C75.8349 47.4342 75.6645 47.9591 75.3954 48.3364C75.1263 48.7136 74.7647 49.0146 74.5285 49.4155C73.941 50.4126 74.2748 51.7017 74.6247 52.8156C74.7259 53.2365 74.9127 53.6293 75.1723 53.9667C75.6908 54.5469 76.5357 54.5974 77.2924 54.609C77.8431 54.6174 78.474 54.5888 78.8223 54.1397C79.277 53.5533 78.959 52.6385 79.2584 51.9503C79.5303 51.3253 80.223 51.0572 80.8506 50.8671C82.0003 50.5187 83.172 50.2225 84.259 49.6963C85.6087 49.0428 86.8701 48.0245 88.3537 47.9404C88.7699 47.9168 89.1964 47.9685 89.5973 47.8485C89.9982 47.7284 90.379 47.3636 90.3487 46.9261C90.3227 46.5522 90.0222 46.2777 89.7874 45.9959C89.5526 45.7141 89.3682 45.2807 89.584 44.9826L93.4725 44.2181C93.1969 43.4275 92.9822 42.3862 93.6155 41.8715C93.8441 41.6858 94.15 41.6116 94.3446 41.3871C94.6762 41.0045 94.5095 40.3455 94.1267 40.0201C93.7439 39.6947 93.2262 39.6192 92.7359 39.5763C91.0309 39.4273 89.316 39.5258 87.6077 39.6243C84.2683 39.817 80.9289 40.0096 77.5895 40.2023C76.9172 40.2411 76.1411 40.1818 75.5245 40.4232C75.0026 40.6276 74.6314 41.0027 74.0345 41.1345C72.9324 41.3778 71.7196 41.2132 70.7224 41.8644Z" fill="#3F3D56"/>
<path d="M89.1304 50.416C89.0257 50.3985 88.9186 50.4241 88.8312 50.4874C88.7735 50.5543 88.7391 50.64 88.7338 50.7302C88.6675 51.1285 88.7465 51.5385 88.9552 51.8781C89.0614 52.0446 89.2081 52.1782 89.38 52.265C89.5519 52.3517 89.7427 52.3884 89.9327 52.3713C90.3955 52.3092 90.7366 51.8936 91.1621 51.6908C91.8179 51.3785 94.603 50.8917 92.6764 49.7961C92.0125 49.4186 91.5835 49.7519 91.0602 50.0005C90.4648 50.3211 89.7976 50.4648 89.1304 50.416Z" fill="#3F3D56"/>
<path d="M106.011 41.2462C105.786 41.343 105.598 41.5154 105.476 41.7366C105.42 41.8489 105.407 41.9797 105.44 42.1019C105.472 42.224 105.549 42.3282 105.652 42.3929C105.736 42.425 105.825 42.4399 105.915 42.4367L106.83 42.4655C107.218 42.4777 107.704 42.5648 107.808 42.959C107.885 43.2517 107.712 43.6277 107.921 43.8369C108.011 43.9101 108.119 43.9545 108.233 43.9646C108.534 44.0461 108.848 44.0568 109.154 43.9959C109.82 43.8081 109.47 43.3805 109.68 42.9998C110 42.4173 109.945 42.7699 110.51 42.4361C110.927 42.1895 111.467 41.7423 111.118 41.1139C110.513 40.0212 106.905 40.7768 106.011 41.2462Z" fill="#3F3D56"/>
<path d="M124.064 40.6972L123.533 40.7718C122.335 40.94 121.13 41.1098 119.977 41.4884C120.476 41.6962 121 41.8315 121.534 41.8906C121.828 41.9057 122.12 41.9494 122.406 42.0211C122.916 42.1807 123.429 42.593 123.921 42.3818C124.227 42.2509 124.326 41.9164 124.579 41.7391C124.754 41.6167 125.416 41.4186 125.49 41.295C126.088 40.2962 124.524 40.6325 124.064 40.6972Z" fill="#3F3D56"/>
<path d="M126.397 43.2373C125.687 43.6548 125.029 44.1622 124.436 44.7481C124.187 44.9951 123.932 45.3022 123.955 45.6619C123.985 46.14 124.468 46.4173 124.888 46.6041L126.586 47.3608C126.792 47.0552 126.603 46.6334 126.39 46.3331C126.177 46.0328 125.924 45.6853 126.018 45.324C126.126 44.9116 126.603 44.7711 127.004 44.7C127.657 44.5843 129.417 44.5936 129.206 43.4864C128.957 42.1819 127.052 42.8518 126.397 43.2373Z" fill="#3F3D56"/>
<path d="M126.053 117.064C125.892 117.556 125.876 118.136 126.156 118.566C126.47 119.049 127.098 119.229 127.641 119.106C128.182 118.955 128.664 118.629 129.02 118.173C129.345 117.792 129.612 117.36 129.813 116.893C130.092 116.166 130.29 115.406 130.4 114.63L130.928 111.716C131.045 111.065 131.041 109.069 129.904 109.719C129.593 109.897 128.874 111.3 128.548 111.698C127.962 112.415 127.884 113.11 127.575 113.979C127.188 115.067 126.411 115.974 126.053 117.064Z" fill="#3F3D56"/>
<path d="M186.109 131.972C185.737 131.819 185.375 131.638 185.028 131.431C184.68 132.438 184.495 133.5 184.48 134.573L187.026 133.056C187.409 132.828 187.843 132.511 187.835 132.048C187.839 131.991 187.827 131.934 187.803 131.883C187.778 131.832 187.74 131.789 187.694 131.758C187.638 131.734 187.576 131.727 187.516 131.736C187.138 131.769 186.794 131.965 186.438 132.101C186.082 132.237 185.666 132.309 185.339 132.107" fill="#3F3D56"/>
<path d="M199.538 132.872C199.259 132.952 198.986 133.056 198.722 133.181C198.137 133.494 197.74 134.088 197.214 134.5C196.711 134.894 196.105 135.111 195.511 135.321C195.336 135.484 195.416 135.812 195.606 135.955C195.81 136.077 196.044 136.132 196.279 136.114C196.896 136.128 197.547 136.134 198.088 135.82C198.393 135.612 198.678 135.374 198.94 135.109C199.572 134.553 200.332 134.187 201.084 133.832C201.358 133.724 201.611 133.564 201.831 133.362C202.304 132.872 202.337 132.116 201.656 131.95C201.105 131.815 200.062 132.694 199.538 132.872Z" fill="#3F3D56"/>
<path d="M205.474 128.792C205.504 128.455 205.462 128.115 205.349 127.798C205.237 127.481 205.057 127.194 204.824 126.961C204.817 127.636 204.797 128.354 204.437 128.912C204.18 129.309 203.777 129.578 203.496 129.956C203.215 130.335 203.09 130.935 203.42 131.267C203.631 131.436 203.888 131.529 204.153 131.533C204.81 131.614 205.57 131.66 206.031 131.16C206.283 130.888 206.405 130.484 206.712 130.283C206.826 130.233 206.928 130.156 207.01 130.058C207.137 129.846 206.936 129.567 206.709 129.491C206.483 129.414 206.233 129.45 206.005 129.378C205.778 129.305 205.569 129.036 205.686 128.818" fill="#3F3D56"/>
<path d="M194.927 104.06C194.583 104.149 194.226 104.171 193.874 104.126C193.289 104.012 192.833 103.549 192.361 103.168C191.239 102.268 189.874 101.767 188.464 101.735C187.18 101.709 185.885 102.075 184.625 101.82C184.707 102.302 185.099 102.663 185.517 102.878C185.935 103.093 186.397 103.201 186.817 103.412C187.49 103.752 188.024 104.337 188.32 105.058C188.456 105.39 188.541 105.752 188.746 106.042C189.165 106.636 189.959 106.766 190.66 106.717C191.573 106.654 192.528 106.377 193.378 106.736C194.028 107.01 194.493 107.609 195.036 108.075C195.579 108.541 196.344 108.886 196.967 108.55C196.32 108.329 195.756 107.897 195.359 107.315C194.961 106.733 194.751 106.033 194.758 105.317C195.37 105.376 197.131 105.353 197.036 104.259C196.956 103.333 195.452 103.96 194.927 104.06Z" fill="#3F3D56"/>
<path d="M186.927 111.601C187.035 110.975 187.629 110.421 187.444 109.814C187.316 109.395 186.854 109.188 186.436 109.177C186.017 109.167 185.606 109.298 185.188 109.311C184.915 109.295 184.642 109.3 184.37 109.323C183.54 109.467 183.028 110.383 182.245 110.709C181.769 110.907 181.234 110.869 180.739 111.006C179.615 111.317 178.904 112.435 178.119 113.336C176.85 114.785 175.196 115.8 173.373 116.249C172.734 116.405 172.047 116.504 171.539 116.941C170.866 117.519 170.701 118.511 170.551 119.411C170.138 121.898 169.506 124.339 168.664 126.703L171.332 127.062C171.84 127.13 172.365 127.197 172.854 127.038C173.209 126.897 173.546 126.709 173.855 126.477C175.043 125.701 176.373 125.195 177.759 124.994C178.458 124.893 179.19 124.875 179.846 125.148C180.502 125.421 181.064 126.041 181.119 126.781C181.403 126.688 181.705 126.678 181.994 126.752C182.282 126.826 182.546 126.981 182.758 127.201C183.176 127.649 183.449 128.224 183.54 128.844C183.61 129.228 183.68 129.689 184.019 129.85C184.296 129.981 184.613 129.84 184.915 129.814C185.941 129.728 186.792 130.987 187.8 130.77C188.882 130.538 189.147 128.833 190.202 128.492C190.808 128.295 191.658 128.534 191.948 127.941C192.204 127.418 191.694 126.814 191.746 126.229C191.811 125.508 192.619 125.202 193.242 124.894C195.389 123.834 196.408 120.792 195.368 118.549C194.751 117.219 193.538 116.173 193.314 114.713C193.142 113.589 193.562 112.279 192.882 111.395C192.536 110.945 191.949 110.697 191.743 110.16C191.614 109.822 191.666 109.439 191.596 109.082C191.526 108.725 191.23 108.351 190.896 108.444C189.924 108.713 189.613 111.873 189.093 112.641C188.302 113.808 186.678 113.04 186.927 111.601Z" fill="#3F3D56"/>
<path d="M168.96 105.255C168.628 105.157 168.265 105.06 167.947 105.2C167.628 105.34 167.442 105.832 167.698 106.076C169.696 105.994 171.707 105.913 173.689 106.199C175.972 106.528 178.231 107.343 180.524 107.103C179.214 106.696 177.883 106.371 176.537 106.129L174.292 105.678C173.69 105.545 173.081 105.446 172.469 105.381C171.188 105.27 170.219 105.626 168.96 105.255Z" fill="#3F3D56"/>
<path d="M170.961 97.929C170.795 97.9144 170.59 97.9018 170.504 98.052C170.422 98.1954 170.516 98.3849 170.472 98.5458C170.411 98.7656 170.138 98.8217 169.922 98.7918C169.707 98.7619 169.474 98.6902 169.283 98.7996C169.186 98.8692 169.114 98.9699 169.076 99.0867C169.038 99.2035 169.037 99.3301 169.074 99.4474C169.152 99.6803 169.278 99.8921 169.443 100.067C169.725 100.442 170.047 100.781 170.402 101.08C171.089 101.613 172.019 101.87 172.452 102.645C172.513 102.795 172.607 102.928 172.726 103.033C172.933 103.171 173.204 103.066 173.428 102.959L174.212 102.582C174.353 102.528 174.479 102.438 174.578 102.319C174.757 102.064 174.647 101.7 174.497 101.424C174.347 101.149 174.154 100.864 174.186 100.548C174.244 99.9848 174.932 99.7694 175.215 99.2875C175.5 98.8018 175.314 98.176 175.347 97.606C175.386 96.9395 175.784 96.0725 175.143 95.5745C174.599 95.1513 174.079 95.5424 173.689 96.0096C172.865 96.995 172.475 98.0621 170.961 97.929Z" fill="#3F3D56"/>
<path d="M175.719 87.9699C175.987 88.5092 176.544 88.831 176.836 89.3562C177.152 89.9254 177.116 90.6609 177.46 91.2127C177.812 91.7788 178.52 92.0794 178.717 92.7233C178.933 93.4262 178.444 94.2806 178.834 94.8948C178.907 94.9952 178.998 95.0786 179.103 95.1398C179.208 95.2009 179.324 95.2384 179.443 95.25C179.563 95.2615 179.683 95.2469 179.797 95.2069C179.911 95.1669 180.015 95.1025 180.104 95.0177C180.269 94.8293 180.357 94.5808 180.349 94.3252C180.342 94.0696 180.24 93.827 180.066 93.6492C179.835 93.4277 179.504 93.332 179.311 93.0733C179.21 92.9239 179.144 92.7526 179.115 92.5722C179.01 92.0516 179.027 91.512 179.164 90.9999C179.216 90.8699 179.229 90.7266 179.202 90.5886C179.115 90.3232 178.774 90.3043 178.534 90.1812C177.99 89.9015 178.003 89.093 178.098 88.4634C178.035 88.8825 176.616 88.1696 176.467 87.9321C176.172 87.4604 176.333 86.5505 176.275 86.0293C175.637 86.3524 175.392 87.3105 175.719 87.9699Z" fill="#3F3D56"/>
<path d="M161.426 96.2676C161.165 95.9591 160.77 95.6363 160.419 95.8224C160.151 95.9643 160.078 96.3544 160.183 96.65C160.31 96.9372 160.507 97.1842 160.754 97.3668C161.485 98.0018 162.273 98.5749 162.911 99.3131C164.053 100.634 164.658 102.417 165.901 103.634C166.15 103.916 166.481 104.104 166.842 104.17C167.204 104.205 167.61 103.962 167.652 103.582C167.686 103.268 167.479 102.988 167.276 102.756C166.794 102.204 166.265 101.695 165.81 101.118C165.599 100.897 165.467 100.606 165.435 100.294C165.433 99.9836 165.702 99.6583 165.988 99.7353C165.64 99.6417 165.382 99.0316 164.871 98.9169C164.445 98.821 164.341 99.0991 163.833 98.8699C162.865 98.4326 162.105 97.0669 161.426 96.2676Z" fill="#3F3D56"/>
<path d="M184.185 66.2261C183.908 66.1392 183.634 66.0365 183.367 65.9184C182.648 65.6912 181.696 66.2476 181.792 67.0316C181.856 67.5524 182.316 67.9036 182.571 68.3554C182.948 69.0253 182.847 69.8751 182.649 70.6254C182.6 70.8577 182.508 71.0774 182.377 71.2713C182.194 71.4761 181.975 71.6417 181.732 71.7593C180.761 72.3326 179.905 73.0985 179.21 74.0147C179.135 74.0993 179.082 74.2037 179.058 74.3169C179.024 74.5816 179.276 74.7744 179.419 74.9952C179.737 75.4855 179.507 76.1454 179.539 76.7379C179.534 76.8216 179.549 76.9053 179.584 76.981C179.618 77.0566 179.671 77.1217 179.736 77.1702C179.927 77.2725 180.154 77.0987 180.258 76.9009C180.602 76.2447 180.343 75.1912 180.988 74.8748C181.11 74.815 181.258 74.7897 181.34 74.6768C181.469 74.4977 181.344 74.2324 181.41 74.0183C181.508 73.6969 181.926 73.6824 182.247 73.6967C182.799 73.721 183.351 73.6436 183.878 73.4681C184.084 73.4164 184.272 73.3019 184.418 73.139C184.611 72.8855 184.594 72.525 184.555 72.2027C184.362 70.5958 183.878 69.0427 183.13 67.6271C183.698 67.7034 184.315 67.7694 184.804 67.4583C185.078 67.2841 185.407 66.7632 185.271 66.4086C185.056 65.8479 184.667 66.3199 184.185 66.2261Z" fill="#3F3D56"/>
<path d="M111.477 75.0636C111.545 75.4467 111.612 75.8501 111.492 76.2191C111.373 76.5881 110.998 76.8963 110.643 76.7833C110.368 76.6956 110.21 76.4045 110.014 76.1826C108.928 74.9486 106.478 75.6631 105.807 74.1364C105.533 73.5133 105.72 72.7668 105.533 72.1091C105.415 71.729 105.181 71.4008 104.866 71.1761C104.552 70.9514 104.176 70.8429 103.797 70.8677C103.451 70.9203 103.114 71.0261 102.798 71.1816C100.676 72.0758 98.4496 72.662 96.1783 72.9242C95.7467 72.9518 95.3197 73.0336 94.9064 73.1677C93.9738 73.5236 93.3366 74.4336 92.8831 75.3623C92.4296 76.2909 92.0948 77.2963 91.4869 78.1213C90.8479 78.9884 89.9525 79.5956 89.1173 80.2523C88.7955 80.4706 88.5276 80.7661 88.3356 81.1147C88.1545 81.5059 88.1647 81.961 88.1788 82.396L88.3495 87.6789C88.3714 88.3584 88.399 89.0622 88.6879 89.6703C89.0488 90.4296 89.7615 90.9269 90.256 91.5977C90.7607 92.2871 91.0235 93.1388 91.0001 94.0086C90.9896 94.3584 90.9566 94.772 91.2154 94.9917C91.3728 95.0991 91.557 95.1549 91.7446 95.1519L98.5341 95.7367C99.7284 95.8396 101.052 96.0088 101.832 96.9665C102.2 97.4185 102.495 98.0685 103.059 98.117C103.301 98.1378 103.536 98.0333 103.778 98.0132C104.388 97.9623 104.924 98.4497 105.262 98.9866C105.774 99.8048 106.007 100.782 105.921 101.758C105.866 102.37 105.685 102.965 105.647 103.579C105.499 105.915 107.38 107.944 107.416 110.284C107.438 111.661 106.817 112.947 106.211 114.168C107.188 115.726 106.388 117.8 106.777 119.622C107.146 121.349 108.515 122.702 108.856 124.436C109.012 125.23 109.021 126.207 109.686 126.616C109.978 126.766 110.302 126.834 110.626 126.814C112.581 126.838 114.514 126.375 116.266 125.463C117.089 125.033 117.941 124.392 118.085 123.437C118.2 122.667 117.83 121.806 118.207 121.136C118.652 120.346 119.791 120.408 120.446 119.801C121.508 118.815 120.68 116.936 121.11 115.516C121.497 114.24 122.828 113.562 123.488 112.417C123.747 111.924 123.934 111.392 124.04 110.84C124.342 109.521 124.53 108.176 124.602 106.821C124.62 105.997 124.677 105.175 124.775 104.358C125.486 99.7063 129.856 96.5913 131.274 92.1223C131.41 91.6956 131.474 91.1271 131.113 90.8856C130.899 90.7781 130.656 90.7514 130.426 90.8099L127.296 91.2252C126.907 91.2768 126.495 91.325 126.138 91.1551C125.781 90.9851 125.525 90.5098 125.715 90.1487C126.246 89.1352 125.153 87.8545 124.667 86.8159C123.359 84.0193 121.801 81.3599 120.014 78.8737C119.9 78.7458 119.828 78.5821 119.81 78.4075L120.698 78.4386C120.399 77.3062 119.904 76.0669 118.858 75.6527C118.269 75.4192 117.617 75.4999 116.989 75.5361C115.189 75.6396 113.259 75.3535 111.477 75.0636Z" fill="#3F3D56"/>
<path d="M116.989 49.5436C117.46 50.0701 117.988 50.6283 118.67 50.7201C119.873 50.8822 120.739 49.572 121.29 48.4339C121.31 48.7241 121.438 48.9944 121.644 49.1874C121.851 49.3804 122.121 49.4808 122.398 49.4674C122.695 49.4147 122.978 49.298 123.231 49.1246C125.616 47.7527 128.287 47.0259 131.005 47.0093C130.979 46.7926 131.03 46.5734 131.148 46.394C131.267 46.2146 131.444 46.0877 131.646 46.0378C132.199 45.9225 132.696 46.4253 132.963 46.9477C133.23 47.4701 133.396 48.0755 133.819 48.4665C134.243 48.8575 135.063 48.8405 135.23 48.2743C135.391 47.7307 134.853 47.2672 134.406 46.9467C133.959 46.6262 133.487 46.033 133.789 45.5601C136.072 45.028 138.37 44.494 140.707 44.3882C141.105 44.4028 141.501 44.3309 141.871 44.1771C142.228 43.993 142.511 43.5752 142.415 43.1697C141.905 43.2959 141.371 43.2594 140.881 43.0648C140.391 42.8702 139.967 42.5264 139.663 42.0772C142.905 41.7956 146.354 41.5555 149.228 43.1614C149.572 43.9405 147.815 44.5887 148.285 45.2915C148.435 45.5156 148.736 45.5419 148.996 45.547C150.993 45.586 153.001 45.6243 154.975 45.3069C155.697 45.191 156.426 45.0273 157.15 45.1213C158.357 45.2779 159.389 46.1253 160.576 46.4015C161.059 46.514 161.6 46.5178 162.008 46.222C162.415 45.9263 162.59 45.2528 162.256 44.8683C163.374 43.7154 165.229 44.0012 166.703 44.5531C168.177 45.1051 169.574 45.9952 171.135 46.1182C172.254 46.2064 173.388 45.8896 174.494 46.091C175.189 46.2175 175.835 46.5429 176.515 46.7428C177.799 47.1208 179.158 47.041 180.491 47.0592C183.894 47.1075 187.259 47.8113 190.421 49.136C190.832 49.2769 191.209 49.5112 191.525 49.8224C191.819 50.154 191.969 50.6692 191.771 51.0724L188.504 50.5699C188.812 51.2077 189.608 51.3164 190.255 51.5364C190.902 51.7565 191.572 52.5082 191.184 53.095C190.483 52.8602 189.848 53.5976 189.494 54.276C189.14 54.9545 188.709 55.767 187.974 55.8083C187.317 55.8453 186.522 55.256 186.093 55.7822C186.685 56.5684 187.192 57.4217 187.605 58.3262C188.028 59.2547 188.33 60.4247 187.758 61.2601C187.667 61.4092 187.531 61.5207 187.371 61.5754C186.904 61.6999 186.6 61.098 186.265 60.7333C185.842 60.2736 185.204 60.1434 184.632 59.9278C184.06 59.7122 183.457 59.2881 183.412 58.6503C183.384 58.2535 183.583 57.8846 183.73 57.5179C183.977 56.8997 184.084 56.2301 184.045 55.561C184.013 55.0227 183.87 54.4627 183.502 54.0866C183.135 53.7105 182.501 53.5912 182.106 53.9356C181.923 54.0964 181.775 54.3535 181.536 54.3631C181.114 54.3801 180.79 53.6054 180.45 53.8699C180.49 54.1516 180.435 54.4392 180.293 54.6822C179.28 55.61 177.723 55.2175 176.416 55.5453C175.795 55.7324 175.2 56.0059 174.647 56.3584C174.44 56.4514 174.264 56.6069 174.142 56.8051C173.978 57.1387 174.158 57.5659 174.446 57.7878C174.751 57.9846 175.093 58.1077 175.449 58.1481C177.042 58.4657 178.658 58.9572 179.916 60.0341C181.173 61.1111 181.998 62.8913 181.6 64.5455L178.459 61.3862C178.578 62.7127 178.646 64.0429 178.662 65.3768C178.682 65.6372 178.648 65.8992 178.562 66.1444C178.338 66.665 177.731 66.8402 177.199 66.9551C177.051 66.9847 176.911 67.0469 176.788 67.1376C176.664 67.2283 176.56 67.3455 176.483 67.4815C176.406 67.6174 176.356 67.7691 176.339 67.9265C176.321 68.0839 176.335 68.2434 176.38 68.3947C176.569 69.043 177.04 69.5485 177.472 70.0521C177.903 70.5558 178.328 71.1282 178.384 71.8037C178.441 72.4793 177.956 73.2407 177.314 73.1937C176.826 73.1581 176.465 72.699 176.257 72.2338C176.049 71.7686 175.925 71.2503 175.613 70.855C174.668 69.6586 172.545 70.1712 171.698 68.8957C171.483 69.1533 171.333 69.4648 171.264 69.8005C171.194 70.1362 171.208 70.485 171.302 70.8137C171.696 70.5541 172.236 70.7953 172.531 71.1724C172.827 71.5496 172.967 72.0331 173.199 72.4566C173.513 73.0282 174.012 73.5349 174.056 74.1934C174.044 74.4423 174.048 74.6918 174.068 74.9403C174.146 75.3392 174.466 75.6257 174.688 75.9592C175.205 76.7351 175.18 77.801 174.846 78.6814C174.513 79.5618 173.915 80.2975 173.322 81.0107C172.286 82.2564 171.23 83.4949 170.002 84.5294C169.652 84.8246 169.278 85.1149 169.06 85.5276C168.842 85.9403 168.831 86.5196 169.166 86.8335C168.926 86.8462 168.496 86.9704 168.256 86.983C168.172 85.9702 168.153 84.9525 168.201 83.9371C167.255 83.4587 166.235 84.7399 166.358 85.8376C166.48 86.9353 167.234 87.8162 167.771 88.766C168.164 89.4605 168.456 90.2703 168.325 91.0666C168.194 91.863 167.518 92.5976 166.753 92.5274C165.536 92.4157 165.027 90.5771 163.822 90.3667C163.716 90.3404 163.605 90.3521 163.505 90.3998C163.326 90.5031 163.295 90.755 163.285 90.9695C163.236 92.0223 163.193 93.1168 163.584 94.0874C164.155 95.5073 165.631 96.6999 165.321 98.207C163.654 97.3912 162.787 95.423 162.393 93.5325C161.999 91.642 161.934 89.6573 161.228 87.8701C160.692 88.5929 159.566 87.9953 159.077 87.2371C158.613 86.5182 158.327 85.6866 157.877 84.958C157.426 84.2294 156.736 83.577 155.912 83.537C155.047 83.495 154.297 84.1197 153.637 84.7099C153.095 85.1953 152.538 85.6997 152.221 86.3706C151.759 87.3469 151.88 88.4979 151.858 89.5881C151.834 90.7666 151.596 92.0101 150.833 92.8729C150.07 93.7357 148.661 94.0362 147.82 93.2586C147.38 92.8527 147.167 92.2461 146.978 91.6639C146.064 88.8575 145.303 85.9985 144.699 83.1009C144.557 83.7622 144.006 84.6147 143.479 84.2251C143.36 84.1204 143.265 83.9904 143.198 83.8438C142.214 82.0899 140.394 81.0379 138.554 80.4071C136.714 79.7763 134.779 79.4821 132.959 78.7888C131.94 78.4002 130.966 77.8897 130.057 77.2673C129.826 77.6256 129.69 78.0431 129.666 78.4757C129.641 78.9084 129.728 79.3399 129.918 79.7247C130.321 80.4768 131.235 80.9119 132.016 80.649C132.42 80.5132 132.761 80.218 133.162 80.0722C133.563 79.9265 134.101 79.9981 134.276 80.4045C134.444 80.7936 134.19 81.2642 134.316 81.6704C134.508 82.2891 135.394 82.3368 135.704 82.8998C135.935 83.3186 135.745 83.8749 135.416 84.2129C135.087 84.5509 134.647 84.7363 134.245 84.9716C132.941 85.735 132.013 87.0383 130.873 88.0523C129.733 89.0662 128.125 89.8065 126.766 89.1561C127.09 87.4301 125.137 86.163 124.777 84.4448C124.659 83.8793 124.721 83.2785 124.552 82.7274C124.307 81.9295 123.635 81.3809 123.083 80.7762C122.414 80.0348 121.892 79.1599 121.549 78.203C121.207 77.2461 121.05 76.2266 121.087 75.2047C121.117 74.4946 121.241 73.773 121.087 73.0808C120.934 72.3887 120.389 71.7188 119.714 71.7502C118.174 71.8218 116.232 71.9424 115.424 70.5599C115.135 70.0664 115.01 69.3437 115.427 68.9657C115.721 68.699 116.156 68.7241 116.542 68.7641L120.014 69.1236C120.826 69.2077 121.704 69.2771 122.401 68.8303C123.097 68.3834 123.399 67.1974 122.754 66.6717C122.283 66.2876 121.438 66.3085 121.301 65.6978C121.187 65.1891 121.722 64.6121 121.433 64.187C121.226 63.8822 120.76 63.9668 120.478 64.1953C120.196 64.4237 119.991 64.7579 119.675 64.9308C119.121 65.2343 118.459 64.9455 117.863 64.7492C117.267 64.5529 116.468 64.5363 116.179 65.1189C115.856 65.7706 116.466 66.6245 116.145 67.2774C115.721 68.1408 114.284 67.6493 113.688 68.3919C113.004 69.244 114.153 70.5146 113.923 71.6032C113.628 71.7566 113.301 71.8271 112.973 71.8077C112.645 71.7883 112.328 71.6797 112.052 71.4926C111.78 71.2981 111.564 71.0298 111.425 70.7161C111.287 70.4025 111.232 70.0553 111.266 69.7114C111.323 69.2217 111.566 68.7218 111.403 68.2591C111.272 67.8849 110.915 67.6622 110.583 67.4692L107.209 65.5069C106.896 66.1185 107.292 66.8767 107.787 67.3361C108.283 67.7955 108.903 68.1415 109.228 68.746C109.434 69.1649 109.48 69.6506 109.357 70.1041C109.234 70.5576 108.952 70.9445 108.567 71.1859C108.519 71.221 108.464 71.2446 108.406 71.2552C108.348 71.2658 108.289 71.2631 108.232 71.2473C108.179 71.214 108.132 71.1697 108.094 71.117C108.057 71.0642 108.03 71.0042 108.015 70.9403C107.42 69.3369 106.526 67.756 105.098 66.9184C103.669 66.0808 101.615 66.253 100.678 67.664C100.456 67.9992 100.306 68.3812 100.113 68.7355C99.0825 70.618 96.8742 71.5094 94.811 71.4511C94.6092 71.4629 94.4084 71.4132 94.2327 71.3081C93.8992 71.0657 93.9142 70.5514 93.9653 70.1282L94.1819 68.3326C94.2253 67.972 94.2884 67.5734 94.5595 67.3483C94.9417 67.031 95.4931 67.2313 95.9798 67.2239C96.3486 67.2057 96.7032 67.0687 96.9954 66.8312C97.2877 66.5938 97.5035 66.2676 97.6137 65.8967C97.712 65.5222 97.7114 65.1266 97.6118 64.7524C97.5123 64.3782 97.3177 64.0398 97.0489 63.7734C96.8258 63.5529 96.5264 63.2758 96.6442 62.9785C96.6912 62.8963 96.7548 62.8259 96.8304 62.7722C96.9061 62.7186 96.992 62.6831 97.082 62.6682C97.9564 62.401 98.8802 62.3309 99.7399 62.0156C100.6 61.7003 101.433 61.0551 101.637 60.1211C101.699 59.8349 101.728 59.4881 101.972 59.3462C102.095 59.2918 102.226 59.2635 102.359 59.263C102.825 59.1932 103.25 58.9422 103.549 58.5596C103.848 58.1769 104 57.6903 103.976 57.1954C104.388 56.8924 104.965 57.1153 105.364 57.4376C105.762 57.7599 106.114 58.1857 106.599 58.3247C107.503 58.5836 108.377 57.7413 109.313 57.7374C109.707 57.7357 110.115 57.8823 110.486 57.7418C110.861 57.5993 111.086 57.2056 111.374 56.9148C111.662 56.624 112.168 56.4466 112.435 56.7599L112.208 54.9922C112.664 55.1136 113.14 55.1308 113.604 55.0426C114.067 54.9544 114.508 54.7629 114.895 54.4809L111.964 53.4388C111.862 53.412 111.768 53.359 111.69 53.2846C111.477 53.0431 111.689 52.6669 111.862 52.3924C112.277 51.7358 112.346 50.6542 111.665 50.3273C111.2 50.1042 110.666 50.372 110.219 50.634L108.08 51.8892C108.012 52.3171 108.51 52.5596 108.818 52.8478C109.004 53.0222 109.136 53.2519 109.196 53.5066C109.256 53.7614 109.242 54.0293 109.154 54.2752C109.067 54.5211 108.911 54.7335 108.707 54.8845C108.503 55.0355 108.261 55.118 108.012 55.1212C108.152 55.314 108.25 55.5376 108.298 55.7755C108.345 56.0134 108.342 56.2596 108.287 56.4957L106.848 56.6046C106.686 56.6388 106.518 56.6044 106.381 56.5088C106.227 56.3649 106.248 56.1128 106.212 55.8994C106.126 55.3844 105.647 55.0234 105.158 54.9309C104.669 54.8383 104.169 54.9569 103.685 55.0741C103.479 55.152 103.253 55.1465 103.051 55.0587C102.935 54.9795 102.847 54.8626 102.801 54.7258C102.588 54.1841 102.787 53.5473 103.128 53.084C103.469 52.6207 103.935 52.2821 104.355 51.8964C105.357 50.9706 106.093 49.7683 106.481 48.4253C107.273 48.0759 108.093 47.6013 108.885 47.2519C110.107 46.6011 111.476 46.3218 112.84 46.4454L115.523 46.4993C116.317 46.5153 117.133 46.5358 117.867 46.8545C118.602 47.1732 119.247 47.8625 119.298 48.697C119.313 48.7915 119.305 48.8885 119.275 48.9789C119.245 49.0694 119.194 49.1503 119.126 49.2141C119.022 49.2737 118.905 49.3015 118.787 49.2945C118.046 49.3219 117.73 49.5162 116.989 49.5436Z" fill="#3F3D56"/>
<path d="M95.606 58.3936C95.7108 58.2892 95.7862 58.1564 95.824 58.0098C95.8617 57.8632 95.8604 57.7085 95.82 57.5626C95.565 57.459 95.2875 57.4324 95.0189 57.4858C94.7503 57.5392 94.5011 57.6705 94.2995 57.8648C94.1406 58.034 94.0036 58.2246 93.8922 58.4316C93.5397 59.037 93.2278 59.7601 93.4321 60.4368C93.4488 60.5106 93.4793 60.5801 93.5218 60.6413C93.5644 60.7026 93.6181 60.7542 93.6798 60.7933C93.7714 60.832 93.8701 60.8483 93.9685 60.8409C94.3569 60.8404 94.7449 60.8152 95.1303 60.7656C95.3671 60.7352 95.642 60.6648 95.7335 60.433C95.8538 60.1283 95.5627 59.7834 95.6476 59.4658C95.7034 59.3237 95.788 59.1962 95.8955 59.0921C95.9488 59.0397 95.9898 58.9749 96.0151 58.9029C96.0405 58.8309 96.0496 58.7537 96.0417 58.6774C96.0074 58.5283 95.7906 58.4438 95.7125 58.5733" fill="#3F3D56"/>
<path d="M97.6245 55.6454C97.2795 55.562 96.9239 55.5385 96.5717 55.5758C96.4938 55.5733 96.4166 55.5918 96.3473 55.6294C96.2802 55.6815 96.2316 55.7557 96.2091 55.8401C96.1347 56.0914 96.153 56.363 96.2603 56.6008C96.3676 56.8385 96.5561 57.025 96.7881 57.123C96.9146 57.1536 97.0358 57.2049 97.1472 57.2749C97.445 57.5181 97.2552 58.0151 97.3115 58.4073C97.3748 58.8477 97.7799 59.2174 97.7056 59.656C97.6471 60.0014 97.2965 60.275 97.353 60.6209C97.4121 60.9831 97.8488 61.092 98.1969 61.121C98.3987 61.1582 98.6063 61.1331 98.7949 61.0489C98.9838 60.9129 99.1182 60.708 99.1721 60.4738C99.3146 60.0273 99.3745 59.5562 99.3485 59.086C99.347 58.8721 99.296 58.6619 99.1999 58.4734C99.095 58.3241 98.9788 58.1841 98.8524 58.0547C98.1854 57.2381 98.8877 56.0201 97.6245 55.6454Z" fill="#3F3D56"/>
<path opacity="0.8" d="M185.324 119.613C185.324 119.613 134.241 88.7499 112.249 94.5976C112.249 94.5976 65.642 99.8768 60.2405 111.491C60.2405 111.491 45.4249 62.7601 40.0234 61.1357" stroke="#FBDE17" stroke-width="2" stroke-miterlimit="10"/>
<path opacity="0.8" d="M60.2405 111.491C68.8057 87.4501 145.97 60.8105 145.97 60.8105C135.013 63.7344 112.249 94.5973 112.249 94.5973C112.249 94.5973 64.0987 57.7243 40.0234 61.1354C40.0234 61.1354 146.047 64.7902 185.324 119.612" stroke="#FBDE17" stroke-width="2" stroke-miterlimit="10"/>
<path d="M40.0268 63.4909C41.2627 63.4909 42.2646 62.4364 42.2646 61.1356C42.2646 59.8348 41.2627 58.7803 40.0268 58.7803C38.7909 58.7803 37.7891 59.8348 37.7891 61.1356C37.7891 62.4364 38.7909 63.4909 40.0268 63.4909Z" fill="#FBDE17"/>
<path d="M60.2456 113.846C61.4815 113.846 62.4833 112.792 62.4833 111.491C62.4833 110.19 61.4815 109.136 60.2456 109.136C59.0097 109.136 58.0078 110.19 58.0078 111.491C58.0078 112.792 59.0097 113.846 60.2456 113.846Z" fill="#FBDE17"/>
<path d="M145.972 63.1657C147.208 63.1657 148.21 62.1112 148.21 60.8104C148.21 59.5096 147.208 58.4551 145.972 58.4551C144.736 58.4551 143.734 59.5096 143.734 60.8104C143.734 62.1112 144.736 63.1657 145.972 63.1657Z" fill="#FBDE17"/>
<path d="M185.328 121.967C186.563 121.967 187.565 120.913 187.565 119.612C187.565 118.311 186.563 117.257 185.328 117.257C184.092 117.257 183.09 118.311 183.09 119.612C183.09 120.913 184.092 121.967 185.328 121.967Z" fill="#FBDE17"/>
<path d="M112.253 96.9528C113.489 96.9528 114.491 95.8983 114.491 94.5975C114.491 93.2967 113.489 92.2422 112.253 92.2422C111.017 92.2422 110.016 93.2967 110.016 94.5975C110.016 95.8983 111.017 96.9528 112.253 96.9528Z" fill="#FBDE17"/>
</g>
<defs>
<clipPath id="clip0_1535_1985">
<rect width="220" height="172" fill="white"/>
</clipPath>
</defs>
</svg>
