<svg width="51" height="37" viewBox="0 0 51 37" fill="none" xmlns="http://www.w3.org/2000/svg">
<path d="M49.9428 5.8053C49.6577 4.68497 49.1024 3.67068 48.3358 2.87025C47.5476 2.04521 46.5815 1.45503 45.5288 1.15544C41.5889 0.0114601 25.8043 0.0114603 25.8043 0.0114603C19.2238 -0.0710155 12.645 0.291734 6.10488 1.09766C5.05213 1.41939 4.08787 2.02275 3.29787 2.85407C2.52165 3.67681 1.95941 4.69137 1.6657 5.80299C0.960158 9.99005 0.617358 14.2415 0.64192 18.5C0.616745 22.7547 0.958704 27.0047 1.6657 31.197C1.95311 32.304 2.51326 33.3139 3.29158 34.1297C4.0699 34.9455 5.03914 35.5349 6.10488 35.8468C10.0972 36.9885 25.8043 36.9885 25.8043 36.9885C32.3931 37.0711 38.9803 36.7084 45.5288 35.9023C46.5815 35.6027 47.5476 35.0125 48.3358 34.1875C49.1021 33.3872 49.6568 32.3728 49.9407 31.2524C50.6647 27.067 51.0167 22.8138 50.9918 18.5531C51.0462 14.2744 50.6947 10.0012 49.9428 5.80299V5.8053ZM20.7861 26.4131V10.5892L33.919 18.5023L20.7861 26.4131Z" fill="white"/>
</svg>
