<svg width="801" height="808" viewBox="0 0 801 808" fill="none" xmlns="http://www.w3.org/2000/svg">
<path d="M325.91 477.797C312.048 478.178 301.466 473.06 297.01 459.17C292.579 445.417 298.518 434.487 310.521 424.203C296.347 418.872 285.312 411.48 285.56 395.244C285.777 381.322 293.623 372.727 305.894 367.527C307.177 367.235 308.433 366.985 309.716 366.694C316.293 366.3 323.535 366.464 327.945 370.927C336.021 379.062 337.27 373.421 342.328 366.879C349.278 357.813 350.875 353.3 339.648 348.115C335.567 346.203 333.538 339.958 330.606 335.692C330.268 333.853 329.929 332.014 329.563 330.217C330.401 317.182 335.072 306.435 347.935 301.207C362.207 295.41 373.102 301.273 383.444 313.117C388.794 298.028 396.782 286.953 412.689 286.604C426.293 286.352 434.457 294.007 439.058 306.196C439.296 307.49 439.494 308.758 439.732 310.052C438.482 315.871 439.093 323.396 435.662 327.121C426.435 337.2 432.908 338.533 439.982 344.093C448.496 350.781 450.934 348.737 455.974 340.567C458.811 335.913 465.307 333.55 470.161 330.106C471.512 329.799 472.89 329.45 474.241 329.144C488.255 328.444 498.754 333.687 503.293 347.452C507.792 361.19 502.148 372.194 490.199 382.395C503.641 388.141 515.209 394.986 514.958 411.4C514.742 425.322 506.975 433.97 494.89 439.412C493.336 439.765 491.81 440.076 490.297 440.455C484.603 439.336 477.443 440.004 473.529 436.707C465.076 429.579 462.968 433.038 457.753 441.213C452.703 449.137 449.788 452.602 459.792 457.639C464.366 459.935 466.548 466.819 469.782 471.584C470.07 473.151 470.359 474.717 470.687 476.31C470.523 490.327 465.081 501.285 451.372 506.315C437.758 511.289 427.051 506.447 417.59 494.226C411.437 508.965 403.171 520.635 386.61 520.494C373.887 520.369 366.124 512.978 361.348 501.751C360.985 499.775 360.661 497.827 360.27 495.893C360.351 486.011 364.277 477.526 370.826 470.29C359.044 460.371 348.186 453.754 337.875 472.276C336.633 474.51 332.878 475.327 330.259 476.773C328.746 477.153 327.328 477.475 325.91 477.797ZM413.845 477.514C409.571 468.053 434.543 463.623 418.262 452.773C409.962 447.243 406.047 448.913 400.82 457.019C389.803 473.998 414.108 467.094 413.845 477.514ZM327.026 420.596C335.757 417.193 342.07 443.08 352.923 420.426C361.531 402.398 342.901 408.794 340.141 400.87C337.885 409.259 331.688 413.434 327.026 420.596ZM473.971 387.5C453.258 376.842 453.683 377.242 450.042 381.546C437.463 396.538 452.864 398.788 460.315 407.349C462.57 398.002 468.762 393.225 473.971 387.5ZM387.146 329.023C383.387 337.079 379.915 343.829 374.159 350.21C382.756 348.754 385.362 368.067 397.943 352.897C413.483 334.11 386.52 339.384 387.146 329.023ZM393.567 397.356C391.055 401.865 383.862 405.982 393.465 409.797C398.326 411.744 401.762 418.557 407.146 408.818C410.818 402.201 412.12 399.528 404.891 395.422C399.466 392.326 396.1 389.329 393.567 397.356Z" fill="#15ACCA" fill-opacity="0.1"/>
<path d="M439.815 310.109C439.576 308.815 439.378 307.547 439.14 306.253C439.68 305.172 440.543 304.125 440.76 303.011C443.288 288.457 450.168 277.669 465.702 276.056C478.337 274.747 487.614 280.801 491.461 292.913C496.201 307.767 489.013 318.412 476.756 326.554C475.818 327.193 475.156 328.372 474.376 329.295C473.025 329.601 471.647 329.95 470.296 330.257C457.254 327.826 447.139 321.041 439.815 310.109Z" fill="#15ACCA" fill-opacity="0.1"/>
<path d="M470.659 476.355C470.371 474.788 470.083 473.221 469.754 471.628C472.318 458.415 479.218 448.119 490.269 440.499C491.823 440.146 493.349 439.835 494.862 439.456C498.792 440.55 502.808 441.341 506.571 442.863C517.217 447.186 523.737 454.895 523.395 467.178C523.067 478.394 517.54 486.781 507.403 491.532C496.29 496.717 486.567 493.781 478.396 485.703C475.498 482.955 473.215 479.535 470.659 476.355Z" fill="#15ACCA" fill-opacity="0.1"/>
<path d="M360.215 495.914C360.579 497.889 360.902 499.838 361.293 501.772C360.339 504.614 359.357 507.498 358.362 510.315C354.185 522.405 346.506 530.571 333.49 531.15C321.552 531.662 312.907 525.785 308.927 514.483C304.624 502.191 309.327 492.004 319.015 483.665C321.291 481.693 323.646 479.774 325.922 477.803C327.34 477.481 328.786 477.117 330.204 476.795C342.914 478.946 352.761 485.615 360.215 495.914Z" fill="#15ACCA" fill-opacity="0.1"/>
<path d="M309.753 366.717C308.47 367.009 307.214 367.259 305.931 367.55C291.427 363.678 277.158 359.361 277.11 340.177C277.06 329.012 282.522 320.462 292.727 315.696C310.168 307.618 320.159 318.512 329.695 330.183C330.034 332.023 330.372 333.862 330.738 335.659C327.692 348.734 320.457 358.928 309.753 366.717Z" fill="#15ACCA" fill-opacity="0.1"/>
<path d="M473.669 548.543C466.347 560.176 449.597 563.981 438.724 556.516C428.412 549.421 425.463 533.592 432.468 522.527C439.818 510.852 456.5 507.063 467.413 514.554C477.657 521.665 480.606 537.493 473.669 548.543Z" fill="#15ACCA" fill-opacity="0.1"/>
<path d="M244.257 428.115C233.284 421.063 230.322 404.209 238.135 393.138C245.578 382.541 261.137 379.149 271.589 385.858C282.562 392.91 285.524 409.765 277.711 420.835C270.308 431.458 254.709 434.824 244.257 428.115Z" fill="#15ACCA" fill-opacity="0.1"/>
<path d="M288.858 474.868C281.818 486.508 265.187 490.57 254.216 483.34C243.846 476.506 240.707 460.791 247.39 449.694C254.429 438.053 271.061 433.991 282.031 441.221C292.441 448.082 295.608 463.755 288.858 474.868Z" fill="#15ACCA" fill-opacity="0.1"/>
<path d="M527.306 420.375C516.723 412.383 514.882 395.309 523.455 384.74C531.741 374.519 547.556 372.133 557.405 379.582C567.988 387.574 569.802 404.69 561.256 415.218C553.01 425.465 537.195 427.85 527.306 420.375Z" fill="#15ACCA" fill-opacity="0.1"/>
<path d="M360.422 249.944C370.947 256.282 374.681 271.79 368.372 283.194C361.855 294.999 345.376 299.7 334.103 292.929C322.95 286.238 319.556 269.517 327.104 258.151C334.266 247.37 349.777 243.527 360.422 249.944Z" fill="#15ACCA" fill-opacity="0.1"/>
<path d="M552.399 358.148C544.796 369.597 528.011 373.019 517.439 365.273C507.319 357.886 504.76 342.075 511.978 331.21C519.58 319.761 536.365 316.339 546.938 324.085C557.058 331.472 559.589 347.325 552.399 358.148Z" fill="#15ACCA" fill-opacity="0.1"/>
<path d="M416.062 238.014C426.965 245.259 429.684 262.133 421.711 273.099C414.081 283.631 398.444 286.793 388.169 279.902C377.266 272.657 374.547 255.782 382.48 244.79C390.123 234.326 405.787 231.123 416.062 238.014Z" fill="#15ACCA" fill-opacity="0.1"/>
<path d="M418.641 561.115C411.238 572.696 394.531 576.349 383.754 568.827C373.496 561.648 370.695 545.857 377.752 534.887C385.155 523.306 401.822 519.626 412.612 527.216C422.87 534.395 425.658 550.119 418.641 561.115Z" fill="#15ACCA" fill-opacity="0.1"/>
<path d="M260.341 504.015C269.847 493.162 280.541 491.052 291.989 498.777C302.917 506.158 304.53 521.226 295.538 531.82C286.109 542.903 274.915 544.204 264.054 535.849C252.981 527.294 252.906 515.993 260.341 504.015Z" fill="#15ACCA" fill-opacity="0.1"/>
<path d="M494.881 542.768C484.118 534.178 481.529 523.554 488.944 511.084C496.013 499.224 511.032 495.954 521.532 504.071C532.485 512.547 534.404 523.926 526.244 535.786C518.069 547.755 506.952 549.286 494.881 542.768Z" fill="#15ACCA" fill-opacity="0.1"/>
<path d="M266.582 363.765C257.836 375.118 247.19 378.637 235.364 370.962C223.658 363.368 221.362 352.038 229.232 339.748C237.114 327.526 248.368 324.828 260.156 332.298C272.037 339.888 273.353 351.05 266.582 363.765Z" fill="#15ACCA" fill-opacity="0.1"/>
<path d="M362.424 572.725C353.8 583.98 343.072 587.623 331.214 580.347C319.503 573.108 317.016 561.893 323.963 549.174C330.592 537.024 345.563 533.304 356.338 541.004C367.647 549.115 369.155 559.984 362.424 572.725Z" fill="#15ACCA" fill-opacity="0.1"/>
<path d="M539.267 474.821C528.601 465.996 526.243 455.284 533.857 442.946C541.127 431.218 556.223 428.179 566.559 436.546C577.347 445.272 579.023 456.671 570.73 468.383C562.287 480.236 551.148 481.454 539.267 474.821Z" fill="#15ACCA" fill-opacity="0.1"/>
<path d="M306.004 264.955C316.493 273.962 318.754 284.909 310.311 296.762C301.84 308.656 290.381 310.62 279.085 302.577C267.669 294.455 266.211 282.9 274.546 271.037C282.991 259.006 294.101 258.008 306.004 264.955Z" fill="#15ACCA" fill-opacity="0.1"/>
<path d="M476.089 258.481C466.46 270.39 455.644 273.557 444.051 265.617C432.497 257.704 430.553 246.188 438.744 234.109C446.934 222.03 458.358 219.683 469.954 227.445C481.75 235.339 482.35 246.628 476.089 258.481Z" fill="#15ACCA" fill-opacity="0.1"/>
<path d="M540.652 301.986C531.734 313.166 521.191 316.093 509.305 308.858C497.939 301.967 495.504 287.015 504.042 276.063C512.883 264.652 524.062 262.503 535.333 270.41C546.724 278.395 547.622 289.581 540.652 301.986Z" fill="#15ACCA" fill-opacity="0.1"/>
<path d="M202.011 492.923C192.599 484.984 189.477 474.907 196.277 464.066C203.089 453.293 214.061 450.588 224.395 457.04C234.77 463.518 236.989 474.617 230.244 485.374C223.524 496.267 213.015 497.661 202.011 492.923Z" fill="#15ACCA" fill-opacity="0.1"/>
<path d="M276.952 591.028C267.728 583.154 264.566 573.05 271.394 562.168C278.234 551.353 289.312 548.659 299.674 555.069C310.089 561.574 312.32 572.74 305.588 583.566C298.786 594.584 288.249 596.02 276.952 591.028Z" fill="#15ACCA" fill-opacity="0.1"/>
<path d="M575.712 493.573C583.783 501.107 586.249 510.872 579.797 521.882C573.925 531.838 558.168 534.92 549.972 527.663C540.938 519.674 539.355 509.354 546.247 498.634C552.082 489.432 566.388 487.069 575.712 493.573Z" fill="#15ACCA" fill-opacity="0.1"/>
<path d="M254.773 307.442C245.899 317.334 235.783 320.483 225.766 313.463C215.829 306.495 213.961 295.388 221.186 284.947C228.384 274.549 239.402 272.294 249.435 279.205C259.547 286.168 259.887 296.806 254.773 307.442Z" fill="#15ACCA" fill-opacity="0.1"/>
<path d="M523.338 216.062C532.55 223.868 535.671 233.946 528.791 244.734C521.979 255.506 510.968 258.185 500.661 251.691C490.313 245.171 488.135 234.1 494.88 223.342C501.679 212.502 512.148 211.082 523.338 216.062Z" fill="#15ACCA" fill-opacity="0.1"/>
<path d="M409.151 214.607C401.183 224.258 391.238 227.759 380.863 221.281C370.556 214.788 368.322 203.799 375.04 193.084C381.784 182.326 392.728 179.663 403.023 186.088C413.425 192.525 414.48 203.036 409.151 214.607Z" fill="#15ACCA" fill-opacity="0.1"/>
<path d="M425.362 614.981C416.723 624.429 406.525 627.704 396.427 620.631C386.41 613.61 384.517 602.367 391.797 591.843C399.09 581.387 410.231 579.033 420.316 586.039C430.468 593.029 431.103 603.742 425.362 614.981Z" fill="#15ACCA" fill-opacity="0.1"/>
<path d="M598.59 314.136C607.814 322.011 610.976 332.115 604.148 342.997C597.308 353.811 586.23 356.505 575.855 350.027C565.44 343.523 563.237 332.315 570.009 321.516C576.756 310.58 587.293 309.145 598.59 314.136Z" fill="#15ACCA" fill-opacity="0.1"/>
<path d="M214.679 401.558C224.109 410.166 226.825 420.336 219.532 430.792C212.335 441.19 201.328 443.513 191.296 436.602C181.332 429.676 179.503 418.596 186.649 408.102C193.916 397.51 204.363 396.734 214.679 401.558Z" fill="#15ACCA" fill-opacity="0.1"/>
<path d="M585.674 405.635C576.45 397.76 573.316 387.615 580.183 376.759C587.023 365.944 598.102 363.25 608.516 369.755C618.931 376.259 621.095 387.441 614.362 398.266C607.48 409.232 596.904 410.641 585.674 405.635Z" fill="#15ACCA" fill-opacity="0.1"/>
<path d="M354.481 226.814C346.308 236.689 336.335 240.232 325.988 233.712C315.681 227.219 313.475 216.189 320.192 205.473C326.937 194.716 337.853 192.094 348.175 198.478C358.657 204.967 359.55 215.551 354.481 226.814Z" fill="#15ACCA" fill-opacity="0.1"/>
<path d="M480.254 602.622C471.765 611.93 462.017 614.783 451.477 608.555C441.899 602.961 439.53 587.035 447.014 578.381C455.263 568.914 465.854 566.438 475.666 573.682C485.41 580.942 486.02 591.519 480.254 602.622Z" fill="#15ACCA" fill-opacity="0.1"/>
<path d="M618.636 426.88C627.891 434.535 629.568 443.84 622.24 453.914C614.79 464.086 605.039 465.202 595.602 458.085C586.738 451.405 585.586 442.087 592.086 432.485C599.109 422.091 608.429 420.931 618.636 426.88Z" fill="#15ACCA" fill-opacity="0.1"/>
<path d="M507.647 595.115C497.897 587.253 495.759 578.123 502.712 567.922C509.664 557.721 519.185 555.735 528.952 562.352C538.759 568.994 540.244 578.592 533.479 588.857C526.508 599.346 517.193 600.149 507.647 595.115Z" fill="#15ACCA" fill-opacity="0.1"/>
<path d="M181.652 379.853C172.613 372.22 170.987 363.009 178.341 353.072C185.776 343.009 195.404 341.993 204.734 349.099C213.53 355.794 214.522 365.006 208.024 374.43C200.962 384.798 191.751 385.79 181.652 379.853Z" fill="#15ACCA" fill-opacity="0.1"/>
<path d="M587.521 260.696C596.848 267.98 599.053 277.094 591.978 287.394C584.835 297.71 575.307 299.271 565.611 292.461C556.554 286.074 555.049 276.943 561.242 267.198C567.984 256.619 577.15 254.998 587.521 260.696Z" fill="#15ACCA" fill-opacity="0.1"/>
<path d="M272.615 245.403C262.618 237.917 260.087 228.947 266.962 218.515C273.85 208.151 283.235 206.197 293.082 212.866C302.236 219.018 303.958 227.994 298.034 237.855C291.572 248.619 282.461 250.157 272.615 245.403Z" fill="#15ACCA" fill-opacity="0.1"/>
<path d="M369.258 626.126C360.837 636.377 351.559 638.342 342.015 631.214C332.31 623.981 331.678 614.048 339.084 604.205C346.064 594.92 355.28 593.571 364.446 599.792C374.518 606.729 374.78 616.178 369.258 626.126Z" fill="#15ACCA" fill-opacity="0.1"/>
<path d="M213.282 546.677C203.357 538.819 201.314 529.632 208.509 519.411C215.732 509.149 225.285 507.724 234.927 514.617C243.928 521.087 245.258 530.223 239.026 539.942C232.173 550.688 222.923 551.654 213.282 546.677Z" fill="#15ACCA" fill-opacity="0.1"/>
<path d="M461.867 202.064C454.009 211.548 444.878 213.551 435.374 206.45C425.75 199.269 425.115 189.514 432.466 179.754C439.391 170.553 448.499 169.194 457.53 175.445C467.47 182.234 468.097 191.566 461.867 202.064Z" fill="#15ACCA" fill-opacity="0.1"/>
<path d="M563.102 580.608C555.396 572.956 553.266 564.25 559.911 555.821C566.352 547.617 575.692 545.992 583.736 552.609C590.94 558.495 592.18 567.332 586.482 575.368C580.249 584.128 571.544 584.615 563.102 580.608Z" fill="#15ACCA" fill-opacity="0.1"/>
<path d="M173.461 323.041C165.751 316.703 163.588 308.395 169.701 299.555C175.251 291.482 183.801 289.575 191.716 294.732C200.311 300.337 201.926 309.301 195.854 318.167C190.291 326.172 182.169 327.343 173.461 323.041Z" fill="#15ACCA" fill-opacity="0.1"/>
<path d="M575.7 206.997C582.909 212.526 585.767 220.215 581.083 228.979C575.916 238.561 566.979 241.23 558.121 236.111C549.183 230.938 547.383 221.732 553.175 212.681C558.5 204.34 566.692 202.976 575.7 206.997Z" fill="#15ACCA" fill-opacity="0.1"/>
<path d="M631.982 506.956C625.489 515.066 617.125 518.172 608.446 512.693C599.808 507.239 598.171 497.961 603.908 488.993C609.218 480.762 617.973 478.631 626.058 483.181C635.011 488.244 636.17 497.028 631.982 506.956Z" fill="#15ACCA" fill-opacity="0.1"/>
<path d="M236.361 226.597C243.518 232.032 246.351 239.584 241.694 248.306C236.582 257.805 227.752 260.485 218.934 255.392C210.104 250.231 208.234 241.218 214.026 232.167C219.364 223.894 227.408 222.492 236.361 226.597Z" fill="#15ACCA" fill-opacity="0.1"/>
<path d="M247.786 594.253C241.307 602.254 232.958 605.25 224.443 599.698C215.967 594.172 214.355 585.03 220.185 576.183C225.547 568.046 234.22 566.041 242.209 570.648C251.027 575.741 252.202 584.416 247.786 594.253Z" fill="#15ACCA" fill-opacity="0.1"/>
<path d="M515.546 187.524C509.666 195.14 501.869 198.082 493.569 193.51C484.481 188.478 482.248 179.405 487.853 170.291C493.445 161.108 502.603 159.064 511.224 164.805C519.056 170.086 519.953 178.398 515.546 187.524Z" fill="#15ACCA" fill-opacity="0.1"/>
<path d="M289.157 642.767C281.572 636.152 279.169 627.685 285.227 618.929C291.23 610.257 300.41 608.526 308.705 614.412C316.24 619.797 317.818 628.557 312.643 636.758C306.958 645.82 298.39 647.056 289.157 642.767Z" fill="#15ACCA" fill-opacity="0.1"/>
<path d="M464.711 659.052C457.104 653.081 455.589 645.619 461.615 637.26C467.078 629.668 474.462 628.31 481.854 633.302C490.087 638.847 491.111 646.704 485.18 655.005C479.743 662.734 472.568 663.512 464.711 659.052Z" fill="#15ACCA" fill-opacity="0.1"/>
<path d="M649.239 306.038C657.665 312.249 659.694 319.452 653.922 328.037C648.726 335.745 641.525 337.523 633.968 332.782C625.663 327.608 624.191 319.994 629.761 311.456C634.998 303.595 642.065 302.806 649.239 306.038Z" fill="#15ACCA" fill-opacity="0.1"/>
<path d="M427.3 645.766C434.388 651.395 436.232 658.356 431.154 666.322C425.637 674.955 417.99 676.798 409.797 671.279C402.365 666.262 400.984 658.947 405.954 650.97C411.486 642.227 418.963 640.99 427.3 645.766Z" fill="#15ACCA" fill-opacity="0.1"/>
<path d="M659.554 361.315C667.98 367.526 670.022 374.797 664.222 383.424C658.999 391.174 651.77 392.994 644.133 388.2C635.788 382.999 634.264 375.291 639.929 366.696C645.126 358.809 652.248 357.936 659.554 361.315Z" fill="#15ACCA" fill-opacity="0.1"/>
<path d="M393.81 156.672C388.029 163.875 381.093 165.948 373.593 160.945C365.333 155.442 364.364 147.501 370.44 139.415C375.995 131.944 383.455 130.995 390.682 136.236C397.989 141.531 398.43 148.704 393.81 156.672Z" fill="#15ACCA" fill-opacity="0.1"/>
<path d="M157.168 419.381C164.025 425.097 165.666 432.104 160.321 439.954C154.413 448.569 146.534 449.72 138.779 443.712C131.609 438.209 131.12 430.585 136.663 423.045C142.369 415.434 149.501 414.807 157.168 419.381Z" fill="#15ACCA" fill-opacity="0.1"/>
<path d="M643.579 271.664C638.359 278.279 631.645 280.797 624.671 276.74C616.909 272.223 615.36 264.379 620.583 256.628C625.283 249.671 632.642 248.176 639.463 252.552C646.337 257.023 646.928 264.055 643.579 271.664Z" fill="#15ACCA" fill-opacity="0.1"/>
<path d="M448.092 143.49C442.621 149.7 435.896 152.15 429.182 147.785C421.787 142.972 420.4 135.055 425.901 127.668C430.784 121.13 438.183 119.662 444.757 124.413C451.291 129.138 451.694 136.107 448.092 143.49Z" fill="#15ACCA" fill-opacity="0.1"/>
<path d="M166.862 474.367C173.951 479.817 175.97 486.774 170.866 494.782C165.293 503.499 157.501 505.127 149.473 499.357C142.099 494.078 141.245 486.573 146.548 478.875C151.933 471.052 159.002 470.085 166.862 474.367Z" fill="#15ACCA" fill-opacity="0.1"/>
<path d="M520.109 645.94C513.629 640.174 511.68 633.023 517.25 625.442C522.203 618.711 529.482 617.164 536.154 621.681C543.518 626.714 544.8 634.441 539.337 642.033C534.369 648.874 527.425 649.565 520.109 645.94Z" fill="#15ACCA" fill-opacity="0.1"/>
<path d="M145.164 363.949C151.781 369.506 154.033 376.197 149.748 383.309C145.008 391.198 137.186 393.046 129.929 388.024C123.405 383.545 122.282 376.101 126.834 369.106C131.497 361.944 138.476 361.636 145.164 363.949Z" fill="#15ACCA" fill-opacity="0.1"/>
<path d="M318.92 173.93C311.397 167.656 309.593 160.721 314.843 152.929C320.615 144.344 328.443 143.099 336.213 148.997C343.33 154.406 343.941 161.931 338.506 169.481C332.96 177.199 325.821 177.401 318.92 173.93Z" fill="#15ACCA" fill-opacity="0.1"/>
<path d="M653.528 442.093C647.619 435.984 645.832 428.762 651.788 421.554C656.964 415.269 664.348 413.911 670.704 418.819C677.606 424.205 678.618 431.994 672.797 439.171C667.579 445.607 660.609 446.161 653.528 442.093Z" fill="#15ACCA" fill-opacity="0.1"/>
<path d="M179.922 550.665C174.21 556.717 167.502 558.88 160.75 554.311C154.039 549.768 152.577 542.4 157.157 535.364C162.26 527.534 170.092 525.933 177.236 531.299C183.635 536.055 183.941 543.259 179.922 550.665Z" fill="#15ACCA" fill-opacity="0.1"/>
<path d="M371.054 658.256C378.091 664.57 380.163 671.621 374.768 679.198C369.95 685.898 362.683 687.513 356.024 683.065C348.685 678.168 347.416 670.509 352.663 662.895C357.456 656.058 364.461 655.886 371.054 658.256Z" fill="#15ACCA" fill-opacity="0.1"/>
<path d="M283.297 181.099C277.491 187.208 270.687 189.427 264.061 184.581C257.527 179.856 256.323 172.36 261.211 165.466C266.111 158.64 273.498 157.104 280.139 161.84C286.713 166.592 287.074 173.712 283.297 181.099Z" fill="#15ACCA" fill-opacity="0.1"/>
<path d="M638.199 559.954C632.981 566.39 626.965 568.112 620.775 563.912C614.584 559.712 613.42 553.2 617.79 546.743C622.16 540.286 628.589 538.897 634.807 543.055C641.066 547.239 641.519 553.523 638.199 559.954Z" fill="#15ACCA" fill-opacity="0.1"/>
<path d="M318.563 688.242C314.225 694.302 309.298 696.201 303.923 693.377C297.772 690.162 296.059 684.484 299.929 678.176C303.771 671.91 309.509 670.784 315.3 674.72C320.49 678.26 320.432 683.489 318.563 688.242Z" fill="#15ACCA" fill-opacity="0.1"/>
<path d="M233.738 634.312C239.472 627.617 245.52 626.456 251.409 631.114C257.417 635.852 257.57 642.417 252.695 648.421C248.366 653.768 242.483 654.679 236.908 650.765C230.612 646.377 230.546 640.288 233.738 634.312Z" fill="#15ACCA" fill-opacity="0.1"/>
<path d="M187.699 603.613C183.264 608.949 177.976 610.612 172.335 606.535C167.496 602.987 166.573 597.59 170.01 592.374C173.943 586.407 179.669 585.213 185.256 589.195C190.191 592.686 190.484 597.907 187.699 603.613Z" fill="#15ACCA" fill-opacity="0.1"/>
<path d="M500.145 129.254C496.027 134.022 491.007 135.801 485.895 132.491C480.062 128.707 479.094 122.682 483.534 116.99C487.317 112.121 492.865 111.11 497.81 114.847C502.662 118.464 502.982 123.642 500.145 129.254Z" fill="#15ACCA" fill-opacity="0.1"/>
<path d="M566.229 172.746C560.588 179.562 554.519 180.231 548.646 175.462C543.345 171.131 542.943 165.12 547.208 159.432C552.146 152.811 558.44 152.41 564.313 157.179C569.709 161.453 569.549 167.272 566.229 172.746Z" fill="#15ACCA" fill-opacity="0.1"/>
<path d="M630.71 214.699C625.379 220.522 619.853 221.848 614.58 217.476C610.093 213.74 609.28 208.177 613.106 203.157C617.398 197.427 623.187 196.574 628.515 200.863C633.177 204.594 632.929 209.937 630.71 214.699Z" fill="#15ACCA" fill-opacity="0.1"/>
<path d="M225.948 191.428C221.91 196.249 216.863 198.069 211.763 194.828C205.875 191.127 204.879 185.144 209.227 179.331C212.957 174.368 218.478 173.398 223.465 176.984C228.398 180.653 228.718 185.832 225.948 191.428Z" fill="#15ACCA" fill-opacity="0.1"/>
<path d="M682.094 490.664C677.294 497.076 672.101 498.682 666.256 494.829C661.171 491.478 659.948 486.363 662.985 480.883C666.382 474.683 671.782 472.675 677.93 476.069C684.091 479.53 684.473 485.049 682.094 490.664Z" fill="#15ACCA" fill-opacity="0.1"/>
<path d="M182.122 259.86C177.514 265.981 171.743 267.505 165.502 263.032C159.954 259.077 159.049 253.393 162.914 247.441C167.301 240.696 173.31 239.509 179.578 243.939C185.194 247.88 185.724 253.436 182.122 259.86Z" fill="#15ACCA" fill-opacity="0.1"/>
<path d="M136.441 327.255C132.27 331.928 127.21 333.681 122.18 330.246C116.43 326.337 115.529 320.296 120.05 314.657C123.885 309.883 129.513 308.924 134.363 312.718C139.133 316.46 139.465 321.707 136.441 327.255Z" fill="#15ACCA" fill-opacity="0.1"/>
<path d="M592.21 626.964C587.972 632.611 582.752 634.258 576.907 630.405C571.822 627.054 570.599 621.939 573.636 616.459C577.033 610.259 582.461 608.21 588.581 611.645C594.594 615.069 595.49 620.507 592.21 626.964Z" fill="#15ACCA" fill-opacity="0.1"/>
</svg>
