<svg width="612" height="612" viewBox="0 0 612 612" fill="none" xmlns="http://www.w3.org/2000/svg">
<path d="M0 347.073L3.80299 346.564C12.7512 412.53 42.5679 472.357 89.9934 519.557C163.465 592.679 268.031 623.181 369.689 601.107L370.52 604.861C267.583 627.22 161.707 596.336 87.309 522.292C39.2443 474.456 9.07604 413.866 0 347.073Z" fill="#78B84C" fill-opacity="0.25"/>
<path d="M87.2731 89.4781C207.147 -29.826 402.218 -29.826 522.092 89.4781C641.966 208.782 641.966 402.925 522.092 522.229L519.376 519.526C637.748 401.717 637.748 209.991 519.376 92.1816C401.004 -25.6276 208.362 -25.6276 89.9895 92.1816C54.2286 127.772 27.7675 171.951 13.5463 219.914L9.87109 218.833C24.2841 170.265 51.0329 125.546 87.2731 89.4781Z" fill="#78B84C" fill-opacity="0.25"/>
<path d="M240.23 36.9044C334.89 14.513 432.425 41.9934 501.135 110.376L495.702 115.783C428.91 49.3087 334.059 22.5917 242.02 44.347L240.23 36.9044Z" fill="#78B84C" fill-opacity="0.25"/>
<path d="M108.277 110.374C129.817 88.9364 154.424 71.3159 181.492 57.9893L184.912 64.8593C158.611 77.8043 134.674 94.9477 113.742 115.781C15.3434 213.711 7.38593 368.351 95.2062 475.506L89.262 480.34C-1.11488 370.164 7.06635 211.103 108.277 110.374Z" fill="#78B84C" fill-opacity="0.25"/>
<path d="M146.656 523.916C198.076 560.938 261.449 578.686 325.109 573.915C389.44 569.08 450 541.409 495.668 495.958C532.516 459.286 557.794 413.199 568.692 362.691C581.411 303.85 573.869 241.765 547.44 187.886L554.343 184.515C581.539 239.921 589.305 303.755 576.202 364.282C564.985 416.221 539.003 463.612 501.069 501.334C454.091 548.088 391.805 576.555 325.62 581.516C260.17 586.414 194.976 568.158 142.086 530.086L146.656 523.916Z" fill="#78B84C" fill-opacity="0.25"/>
<path d="M162.83 164.668C241.063 86.8072 368.351 86.8072 446.584 164.668C478.255 196.188 498.005 236.136 503.693 280.219L496.055 281.205C490.558 238.808 471.575 200.418 441.12 170.107C365.891 95.2359 243.492 95.2359 168.263 170.107C154.905 183.402 143.655 198.446 134.771 214.826L127.996 211.2C137.232 194.12 148.929 178.504 162.83 164.668Z" fill="#78B84C" fill-opacity="0.25"/>
<path d="M104.242 297.106L111.944 297.424C109.579 351.113 130.128 403.656 168.254 441.633C195.131 468.381 228.91 486.479 265.981 493.985L264.447 501.491C225.906 493.667 190.752 474.838 162.821 447.04C123.129 407.569 101.782 352.926 104.242 297.106Z" fill="#78B84C" fill-opacity="0.25"/>
<path d="M326.605 496.658C370.324 491.697 409.92 472.677 441.111 441.666C468.435 414.472 486.778 380.185 494.097 342.559L501.639 344.022C494.033 383.143 474.986 418.798 446.543 447.073C414.106 479.356 372.944 499.107 327.468 504.26L326.605 496.658Z" fill="#78B84C" fill-opacity="0.25"/>
<path d="M187.172 188.935C206.283 169.915 229.932 155.698 255.562 147.842L256.68 151.499C231.625 159.196 208.52 173.064 189.856 191.639C138.34 242.91 127.475 322.679 163.427 385.623L160.072 387.499C123.32 323.061 134.441 241.415 187.172 188.935Z" fill="#78B84C" fill-opacity="0.25"/>
<path d="M304.648 140.494C349.038 140.494 390.775 157.701 422.189 188.935C486.968 253.405 486.968 358.333 422.189 422.804C357.411 487.274 251.982 487.274 187.203 422.804L189.92 420.1C253.196 483.076 356.196 483.076 419.473 420.1C482.75 357.124 482.75 254.614 419.473 191.638C388.793 161.104 348.047 144.311 304.68 144.311V140.494H304.648Z" fill="#78B84C" fill-opacity="0.25"/>
<path d="M231.607 233.146C271.906 193.039 337.483 193.039 377.782 233.146C418.081 273.253 418.081 338.519 377.782 378.626L372.349 373.219C409.644 336.102 409.644 275.702 372.349 238.553C335.055 201.435 274.367 201.435 237.072 238.553C199.777 275.67 199.777 336.07 237.072 373.187L231.639 378.594C191.308 338.487 191.308 273.253 231.607 233.146Z" fill="#78B84C" fill-opacity="0.25"/>
<path d="M268.344 269.723C288.382 249.781 320.979 249.781 340.984 269.723L338.268 272.427C319.732 253.979 289.596 253.979 271.06 272.427C252.525 290.874 252.525 320.867 271.06 339.315C289.596 357.762 319.732 357.762 338.268 339.315C348.558 329.073 353.512 314.951 351.882 300.543L355.717 300.098C357.475 315.651 352.106 330.95 340.984 342.018C320.947 361.96 288.35 361.96 268.344 342.018C248.338 322.076 248.338 289.666 268.344 269.723Z" fill="#78B84C" fill-opacity="0.25"/>
</svg>
